<?xml version="1.0" encoding="UTF-8" standalone="no"?>
<!-- Created with Inkscape (http://www.inkscape.org/) -->

<svg
   xmlns:dc="http://purl.org/dc/elements/1.1/"
   xmlns:cc="http://creativecommons.org/ns#"
   xmlns:rdf="http://www.w3.org/1999/02/22-rdf-syntax-ns#"
   xmlns:svg="http://www.w3.org/2000/svg"
   xmlns="http://www.w3.org/2000/svg"
   xmlns:sodipodi="http://sodipodi.sourceforge.net/DTD/sodipodi-0.dtd"
   xmlns:inkscape="http://www.inkscape.org/namespaces/inkscape"
   version="1.1"
   id="svg2"
   xml:space="preserve"
   width="263.668"
   height="336.22"
   viewBox="0 0 263.668 336.22"
   sodipodi:docname="Fig4A.svg"
   inkscape:version="0.92.3 (2405546, 2018-03-11)"><metadata
     id="metadata8"><rdf:RDF><cc:Work
         rdf:about=""><dc:format>image/svg+xml</dc:format><dc:type
           rdf:resource="http://purl.org/dc/dcmitype/StillImage" /><dc:title></dc:title></cc:Work></rdf:RDF></metadata><defs
     id="defs6"><clipPath
       clipPathUnits="userSpaceOnUse"
       id="clipPath18"><path
         d="M 44.628,228.574 C 31.106,228.478 20.222,217.431 20.318,203.9 v 0 c 0.098,-13.531 11.137,-24.421 24.66,-24.325 v 0 c 13.522,0.096 24.407,11.144 24.309,24.675 v 0 c -0.095,13.472 -11.038,24.326 -24.481,24.325 v 0 c -0.058,0 -0.119,-10e-4 -0.178,-10e-4"
         id="path16"
         inkscape:connector-curvature="0" /></clipPath><radialGradient
       fx="0"
       fy="0"
       cx="0"
       cy="0"
       r="1"
       gradientUnits="userSpaceOnUse"
       gradientTransform="matrix(24.484667,0.1746334,0.1745286,-24.499378,44.803284,204.07466)"
       spreadMethod="pad"
       id="radialGradient34"><stop
         style="stop-opacity:1;stop-color:#e7f3d7"
         offset="0"
         id="stop24" /><stop
         style="stop-opacity:1;stop-color:#e7f3d7"
         offset="0.332402"
         id="stop26" /><stop
         style="stop-opacity:1;stop-color:#e7f3d7"
         offset="0.68591101"
         id="stop28" /><stop
         style="stop-opacity:1;stop-color:#a2ab97"
         offset="0.988827"
         id="stop30" /><stop
         style="stop-opacity:1;stop-color:#a2ab97"
         offset="1"
         id="stop32" /></radialGradient><clipPath
       clipPathUnits="userSpaceOnUse"
       id="clipPath128"><path
         d="M 152.563,228.574 C 139.04,228.478 128.156,217.431 128.252,203.9 v 0 c 0.096,-13.531 11.137,-24.421 24.659,-24.325 v 0 c 13.522,0.096 24.407,11.144 24.311,24.675 v 0 c -0.096,13.472 -11.039,24.326 -24.481,24.325 v 0 c -0.059,0 -0.12,-10e-4 -0.178,-10e-4"
         id="path126"
         inkscape:connector-curvature="0" /></clipPath><radialGradient
       fx="0"
       fy="0"
       cx="0"
       cy="0"
       r="1"
       gradientUnits="userSpaceOnUse"
       gradientTransform="matrix(24.484667,0.1746334,0.1745286,-24.499378,152.73682,204.07466)"
       spreadMethod="pad"
       id="radialGradient144"><stop
         style="stop-opacity:1;stop-color:#e7f3d7"
         offset="0"
         id="stop134" /><stop
         style="stop-opacity:1;stop-color:#e7f3d7"
         offset="0.332402"
         id="stop136" /><stop
         style="stop-opacity:1;stop-color:#e7f3d7"
         offset="0.68591101"
         id="stop138" /><stop
         style="stop-opacity:1;stop-color:#a2ab97"
         offset="0.988827"
         id="stop140" /><stop
         style="stop-opacity:1;stop-color:#a2ab97"
         offset="1"
         id="stop142" /></radialGradient><clipPath
       clipPathUnits="userSpaceOnUse"
       id="clipPath194"><path
         d="m 152.355,142.112 c -13.523,-0.096 -24.406,-11.144 -24.31,-24.674 v 0 c 0.096,-13.53 11.136,-24.421 24.659,-24.324 v 0 c 13.522,0.095 24.407,11.143 24.311,24.674 v 0 c -0.097,13.471 -11.039,24.325 -24.481,24.324 v 0 c -0.059,0 -0.12,0 -0.179,0"
         id="path192"
         inkscape:connector-curvature="0" /></clipPath><radialGradient
       fx="0"
       fy="0"
       cx="0"
       cy="0"
       r="1"
       gradientUnits="userSpaceOnUse"
       gradientTransform="matrix(24.484667,0.1746334,0.1745286,-24.499378,152.52945,117.61283)"
       spreadMethod="pad"
       id="radialGradient210"><stop
         style="stop-opacity:1;stop-color:#e7f3d7"
         offset="0"
         id="stop200" /><stop
         style="stop-opacity:1;stop-color:#e7f3d7"
         offset="0.332402"
         id="stop202" /><stop
         style="stop-opacity:1;stop-color:#e7f3d7"
         offset="0.68591101"
         id="stop204" /><stop
         style="stop-opacity:1;stop-color:#a2ab97"
         offset="0.988827"
         id="stop206" /><stop
         style="stop-opacity:1;stop-color:#a2ab97"
         offset="1"
         id="stop208" /></radialGradient><clipPath
       clipPathUnits="userSpaceOnUse"
       id="clipPath220"><path
         d="m 152.355,142.112 c -13.523,-0.096 -24.406,-11.144 -24.31,-24.674 v 0 c 0.096,-13.53 11.136,-24.421 24.659,-24.324 v 0 c 13.522,0.095 24.406,11.143 24.311,24.674 v 0 c -0.097,13.471 -11.04,24.325 -24.481,24.324 v 0 c -0.059,0 -0.12,0 -0.179,0"
         id="path218"
         inkscape:connector-curvature="0" /></clipPath><clipPath
       clipPathUnits="userSpaceOnUse"
       id="clipPath312"><path
         d="M 0,252.165 H 197.751 V 0 H 0 Z"
         id="path310"
         inkscape:connector-curvature="0" /></clipPath><clipPath
       clipPathUnits="userSpaceOnUse"
       id="clipPath376"><path
         d="M 43.948,60.623 C 30.425,60.526 19.541,49.479 19.638,35.949 v 0 C 19.734,22.417 30.774,11.527 44.297,11.624 v 0 c 13.523,0.097 24.406,11.143 24.31,24.674 v 0 C 68.511,49.77 57.568,60.625 44.126,60.624 v 0 c -0.059,0 -0.119,0 -0.178,-0.001"
         id="path374"
         inkscape:connector-curvature="0" /></clipPath><radialGradient
       fx="0"
       fy="0"
       cx="0"
       cy="0"
       r="1"
       gradientUnits="userSpaceOnUse"
       gradientTransform="matrix(24.484667,0.1746334,0.1745286,-24.499378,44.122341,36.12326)"
       spreadMethod="pad"
       id="radialGradient392"><stop
         style="stop-opacity:1;stop-color:#e7f3d7"
         offset="0"
         id="stop382" /><stop
         style="stop-opacity:1;stop-color:#e7f3d7"
         offset="0.332402"
         id="stop384" /><stop
         style="stop-opacity:1;stop-color:#e7f3d7"
         offset="0.68591101"
         id="stop386" /><stop
         style="stop-opacity:1;stop-color:#a2ab97"
         offset="0.988827"
         id="stop388" /><stop
         style="stop-opacity:1;stop-color:#a2ab97"
         offset="1"
         id="stop390" /></radialGradient><clipPath
       clipPathUnits="userSpaceOnUse"
       id="clipPath486"><path
         d="M 0,252.165 H 197.751 V 0 H 0 Z"
         id="path484"
         inkscape:connector-curvature="0" /></clipPath><clipPath
       clipPathUnits="userSpaceOnUse"
       id="clipPath538"><path
         d="M 152.355,59.994 C 138.832,59.897 127.949,48.85 128.045,35.32 v 0 c 0.096,-13.53 11.136,-24.421 24.659,-24.326 v 0 c 13.522,0.098 24.407,11.144 24.311,24.676 v 0 c -0.097,13.472 -11.039,24.326 -24.482,24.325 v 0 c -0.059,0 -0.12,-10e-4 -0.178,-10e-4"
         id="path536"
         inkscape:connector-curvature="0" /></clipPath><radialGradient
       fx="0"
       fy="0"
       cx="0"
       cy="0"
       r="1"
       gradientUnits="userSpaceOnUse"
       gradientTransform="matrix(24.484667,0.1746334,0.1745286,-24.499378,152.52945,35.494572)"
       spreadMethod="pad"
       id="radialGradient554"><stop
         style="stop-opacity:1;stop-color:#e7f3d7"
         offset="0"
         id="stop544" /><stop
         style="stop-opacity:1;stop-color:#e7f3d7"
         offset="0.332402"
         id="stop546" /><stop
         style="stop-opacity:1;stop-color:#e7f3d7"
         offset="0.68591101"
         id="stop548" /><stop
         style="stop-opacity:1;stop-color:#a2ab97"
         offset="0.988827"
         id="stop550" /><stop
         style="stop-opacity:1;stop-color:#a2ab97"
         offset="1"
         id="stop552" /></radialGradient><clipPath
       clipPathUnits="userSpaceOnUse"
       id="clipPath564"><path
         d="M 152.355,59.994 C 138.832,59.897 127.949,48.85 128.045,35.32 v 0 c 0.096,-13.53 11.136,-24.421 24.659,-24.326 v 0 c 13.522,0.098 24.406,11.144 24.311,24.676 v 0 c -0.097,13.472 -11.04,24.326 -24.482,24.325 v 0 c -0.059,0 -0.12,-10e-4 -0.178,-10e-4"
         id="path562"
         inkscape:connector-curvature="0" /></clipPath><clipPath
       clipPathUnits="userSpaceOnUse"
       id="clipPath612"><path
         d="M 0,252.165 H 197.751 V 0 H 0 Z"
         id="path610"
         inkscape:connector-curvature="0" /></clipPath><clipPath
       clipPathUnits="userSpaceOnUse"
       id="clipPath628"><path
         d="M 44.628,143.268 C 31.106,143.171 20.222,132.124 20.318,118.593 v 0 c 0.098,-13.53 11.137,-24.421 24.66,-24.323 v 0 c 13.522,0.096 24.407,11.143 24.309,24.673 v 0 c -0.095,13.472 -11.04,24.326 -24.482,24.326 v 0 c -0.059,0 -0.118,0 -0.177,-0.001"
         id="path626"
         inkscape:connector-curvature="0" /></clipPath><radialGradient
       fx="0"
       fy="0"
       cx="0"
       cy="0"
       r="1"
       gradientUnits="userSpaceOnUse"
       gradientTransform="matrix(24.484667,0.1746334,0.1745286,-24.499378,44.803284,118.76845)"
       spreadMethod="pad"
       id="radialGradient644"><stop
         style="stop-opacity:1;stop-color:#e7f3d7"
         offset="0"
         id="stop634" /><stop
         style="stop-opacity:1;stop-color:#e7f3d7"
         offset="0.332402"
         id="stop636" /><stop
         style="stop-opacity:1;stop-color:#e7f3d7"
         offset="0.68591101"
         id="stop638" /><stop
         style="stop-opacity:1;stop-color:#a2ab97"
         offset="0.988827"
         id="stop640" /><stop
         style="stop-opacity:1;stop-color:#a2ab97"
         offset="1"
         id="stop642" /></radialGradient><clipPath
       clipPathUnits="userSpaceOnUse"
       id="clipPath738"><path
         d="M 0,252.165 H 197.751 V 0 H 0 Z"
         id="path736"
         inkscape:connector-curvature="0" /></clipPath><clipPath
       clipPathUnits="userSpaceOnUse"
       id="clipPath754"><path
         d="M 88.2691,218.086 H 108.84 V 185.774 H 88.2691 Z"
         id="path752"
         inkscape:connector-curvature="0" /></clipPath><clipPath
       clipPathUnits="userSpaceOnUse"
       id="clipPath778"><path
         d="M 0,252.165 H 197.751 V 0 H 0 Z"
         id="path776"
         inkscape:connector-curvature="0" /></clipPath><clipPath
       clipPathUnits="userSpaceOnUse"
       id="clipPath786"><path
         d="M 89.1061,50.5445 H 109.677 V 18.2323 H 89.1061 Z"
         id="path784"
         inkscape:connector-curvature="0" /></clipPath></defs><sodipodi:namedview
     pagecolor="#ffffff"
     bordercolor="#666666"
     borderopacity="1"
     objecttolerance="10"
     gridtolerance="10"
     guidetolerance="10"
     inkscape:pageopacity="0"
     inkscape:pageshadow="2"
     inkscape:window-width="1853"
     inkscape:window-height="1025"
     id="namedview4"
     showgrid="false"
     inkscape:zoom="1.4038427"
     inkscape:cx="61.822074"
     inkscape:cy="147.50926"
     inkscape:window-x="67"
     inkscape:window-y="27"
     inkscape:window-maximized="1"
     inkscape:current-layer="g10" /><g
     id="g10"
     inkscape:groupmode="layer"
     inkscape:label="Fig4A"
     transform="matrix(1.3333333,0,0,-1.3333333,0,336.22)"><g
       id="g12"><g
         id="g14"
         clip-path="url(#clipPath18)"><g
           id="g20"><g
             id="g22"><path
               d="M 44.628,228.574 C 31.106,228.478 20.222,217.431 20.318,203.9 v 0 c 0.098,-13.531 11.137,-24.421 24.66,-24.325 v 0 c 13.522,0.096 24.407,11.144 24.309,24.675 v 0 c -0.095,13.472 -11.038,24.326 -24.481,24.325 v 0 c -0.058,0 -0.119,-10e-4 -0.178,-10e-4"
               style="fill:url(#radialGradient34);stroke:none"
               id="path36"
               inkscape:connector-curvature="0" /></g></g><g
           id="g38"
           transform="translate(42.6384,185.4132)"><path
             d="m 0,0 c 0.251,-0.508 0.465,-0.898 0.727,-1.049 0.214,-0.143 0.554,-0.325 1.077,-0.408 0.482,-0.084 1.134,-0.208 1.539,-0.688 0.385,-0.48 0.42,-1.063 0.365,-1.562 l -0.1,-0.002 c -0.07,0.491 -0.269,0.97 -0.615,1.208 -0.328,0.254 -0.756,0.258 -1.256,0.247 -0.251,-0.005 -0.523,-0.019 -0.834,0.02 -0.302,0.048 -0.663,0.198 -0.888,0.483 -0.466,0.577 -0.404,1.279 -0.115,1.755 z"
             style="fill:#000000;fill-opacity:1;fill-rule:nonzero;stroke:none"
             id="path40"
             inkscape:connector-curvature="0" /></g><g
           id="g42"
           transform="translate(39.4309,184.505)"><path
             d="m 0,0 c -1.047,0 -2.032,0.408 -2.773,1.149 l -4.583,4.586 c -1.528,1.528 -1.528,4.014 -0.001,5.542 0.741,0.742 1.726,1.15 2.774,1.15 1.047,0 2.032,-0.408 2.772,-1.149 L 2.773,6.692 C 4.3,5.164 4.3,2.678 2.773,1.149 2.033,0.408 1.048,0 0,0"
             style="fill:#569bbc;fill-opacity:1;fill-rule:nonzero;stroke:none"
             id="path44"
             inkscape:connector-curvature="0" /></g><g
           id="g46"
           transform="translate(34.8474,197.4318)"><path
             d="m 0,0 c -1.132,0 -2.264,-0.432 -3.127,-1.296 -1.725,-1.726 -1.725,-4.524 0,-6.249 l 4.584,-4.586 c 0.863,-0.864 1.995,-1.296 3.126,-1.296 1.132,0 2.264,0.432 3.127,1.296 1.725,1.727 1.725,4.524 0,6.25 L 3.126,-1.295 C 2.263,-0.432 1.131,0 0,0 m 0,-1 c 0.914,0 1.773,-0.356 2.419,-1.002 l 4.583,-4.586 c 1.333,-1.333 1.333,-3.502 0.001,-4.836 -0.647,-0.646 -1.505,-1.003 -2.42,-1.003 -0.914,0 -1.773,0.356 -2.419,1.003 l -4.583,4.585 C -3.752,-5.505 -3.752,-3.336 -2.42,-2.003 -1.773,-1.356 -0.915,-1 0,-1"
             style="fill:#000000;fill-opacity:1;fill-rule:nonzero;stroke:none"
             id="path48"
             inkscape:connector-curvature="0" /></g><g
           id="g50"
           transform="translate(48.634,198.4137)"><path
             d="m 0,0 c 0.251,-0.508 0.465,-0.898 0.726,-1.049 0.215,-0.143 0.555,-0.325 1.078,-0.408 0.482,-0.084 1.134,-0.208 1.539,-0.688 0.385,-0.48 0.42,-1.063 0.365,-1.562 l -0.1,-0.002 C 3.538,-3.218 3.339,-2.739 2.993,-2.501 2.665,-2.247 2.237,-2.243 1.737,-2.254 1.486,-2.259 1.214,-2.273 0.903,-2.234 0.601,-2.186 0.24,-2.036 0.015,-1.751 -0.451,-1.174 -0.39,-0.472 -0.1,0.004 Z"
             style="fill:#000000;fill-opacity:1;fill-rule:nonzero;stroke:none"
             id="path52"
             inkscape:connector-curvature="0" /></g><g
           id="g54"
           transform="translate(45.426,197.5055)"><path
             d="m 0,0 c -1.047,0 -2.032,0.408 -2.773,1.149 l -4.583,4.586 c -1.528,1.528 -1.528,4.014 0,5.542 0.74,0.742 1.725,1.15 2.773,1.15 1.048,0 2.032,-0.408 2.773,-1.149 L 2.773,6.692 C 4.301,5.164 4.301,2.678 2.774,1.149 2.033,0.408 1.048,0 0,0 Z"
             style="fill:#dda5cb;fill-opacity:1;fill-rule:nonzero;stroke:none"
             id="path56"
             inkscape:connector-curvature="0" /></g><g
           id="g58"
           transform="translate(40.8425,210.4323)"><path
             d="m 0,0 c -1.132,0 -2.264,-0.432 -3.127,-1.296 -1.725,-1.726 -1.725,-4.524 10e-4,-6.25 l 4.583,-4.585 c 0.863,-0.864 1.995,-1.296 3.126,-1.296 1.132,0 2.264,0.432 3.127,1.296 1.726,1.726 1.726,4.524 0,6.25 L 3.126,-1.295 C 2.264,-0.432 1.132,0 0,0 m 0,-1 c 0.914,0 1.773,-0.356 2.419,-1.002 l 4.584,-4.586 c 1.332,-1.333 1.332,-3.503 0,-4.836 -0.646,-0.647 -1.505,-1.003 -2.42,-1.003 -0.914,0 -1.772,0.356 -2.418,1.003 l -4.584,4.585 c -1.332,1.334 -1.333,3.503 0,4.836 C -1.773,-1.356 -0.914,-1 0,-1"
             style="fill:#000000;fill-opacity:1;fill-rule:nonzero;stroke:none"
             id="path60"
             inkscape:connector-curvature="0" /></g><g
           id="g62"
           transform="translate(18.218,195.2892)"><path
             d="M 0,0 C -0.508,-0.25 -0.898,-0.465 -1.048,-0.727 -1.191,-0.942 -1.373,-1.282 -1.456,-1.805 -1.54,-2.287 -1.664,-2.939 -2.143,-3.344 -2.623,-3.729 -3.205,-3.765 -3.705,-3.71 l -0.002,0.099 c 0.491,0.071 0.97,0.271 1.207,0.617 0.254,0.328 0.258,0.756 0.247,1.256 -0.005,0.251 -0.019,0.523 0.02,0.834 0.047,0.302 0.197,0.662 0.482,0.888 0.576,0.467 1.279,0.406 1.755,0.116 z"
             style="fill:#000000;fill-opacity:1;fill-rule:nonzero;stroke:none"
             id="path64"
             inkscape:connector-curvature="0" /></g><g
           id="g66"
           transform="translate(21.2292,194.5783)"><path
             d="m 0,0 c -1.048,0 -2.033,0.408 -2.773,1.149 -1.528,1.528 -1.528,4.015 -10e-4,5.543 l 4.583,4.586 c 0.741,0.742 1.725,1.149 2.773,1.149 1.047,0 2.033,-0.407 2.773,-1.149 C 8.883,9.75 8.883,7.264 7.356,5.736 L 2.773,1.149 C 2.032,0.408 1.047,0 0,0"
             style="fill:#e48a54;fill-opacity:1;fill-rule:nonzero;stroke:none"
             id="path68"
             inkscape:connector-curvature="0" /></g><g
           id="g70"
           transform="translate(25.8112,207.506)"><path
             d="m 0,0 c -1.132,0 -2.264,-0.432 -3.127,-1.296 l -4.582,-4.586 c -1.726,-1.726 -1.726,-4.524 0,-6.25 0.863,-0.864 1.995,-1.296 3.126,-1.296 1.132,0 2.264,0.432 3.127,1.296 l 4.583,4.587 C 4.852,-5.819 4.852,-3.021 3.126,-1.296 2.263,-0.432 1.132,0 0,0 m 0,-1 c 0.914,0 1.773,-0.356 2.419,-1.002 1.333,-1.334 1.333,-3.503 10e-4,-4.836 l -4.583,-4.587 c -0.646,-0.646 -1.505,-1.003 -2.42,-1.003 -0.914,0 -1.773,0.356 -2.419,1.003 -1.332,1.333 -1.332,3.503 0,4.836 l 4.583,4.586 C -1.773,-1.356 -0.914,-1 0,-1"
             style="fill:#000000;fill-opacity:1;fill-rule:nonzero;stroke:none"
             id="path72"
             inkscape:connector-curvature="0" /></g><g
           id="g74"
           transform="translate(62.5031,194.8493)"><path
             d="M 0,0 C 0.508,0.25 0.898,0.465 1.048,0.727 1.192,0.942 1.374,1.282 1.456,1.805 1.54,2.287 1.664,2.939 2.143,3.344 2.623,3.729 3.206,3.765 3.705,3.71 L 3.707,3.611 C 3.216,3.54 2.737,3.34 2.5,2.994 2.246,2.666 2.242,2.238 2.253,1.738 2.258,1.487 2.272,1.215 2.233,0.904 2.186,0.602 2.036,0.242 1.752,0.016 1.175,-0.451 0.473,-0.39 -0.004,-0.1 Z"
             style="fill:#000000;fill-opacity:1;fill-rule:nonzero;stroke:none"
             id="path76"
             inkscape:connector-curvature="0" /></g><g
           id="g78"
           transform="translate(54.9104,183.1325)"><path
             d="m 0,0 c -1.047,0 -2.032,0.408 -2.773,1.149 -1.528,1.528 -1.528,4.015 0,5.543 l 4.582,4.586 c 0.741,0.742 1.726,1.149 2.774,1.149 1.047,0 2.032,-0.407 2.773,-1.149 1.527,-1.528 1.527,-4.014 0,-5.542 L 2.773,1.149 C 2.033,0.408 1.048,0 0,0"
             style="fill:#dda5cb;fill-opacity:1;fill-rule:nonzero;stroke:none"
             id="path80"
             inkscape:connector-curvature="0" /></g><g
           id="g82"
           transform="translate(59.4929,196.0597)"><path
             d="M 0,0 C -1.132,0 -2.264,-0.432 -3.127,-1.296 L -7.71,-5.882 c -1.725,-1.726 -1.725,-4.524 0.001,-6.25 0.863,-0.863 1.995,-1.295 3.126,-1.295 1.132,0 2.264,0.432 3.127,1.296 l 4.583,4.586 c 1.725,1.726 1.725,4.524 -10e-4,6.25 C 2.263,-0.432 1.132,0 0,0 m 0,-1 c 0.914,0 1.773,-0.356 2.419,-1.002 1.333,-1.333 1.333,-3.503 0,-4.836 l -4.582,-4.586 c -0.647,-0.647 -1.505,-1.003 -2.42,-1.003 -0.914,0 -1.773,0.356 -2.419,1.002 -1.332,1.334 -1.333,3.503 0,4.836 l 4.583,4.587 C -1.773,-1.356 -0.914,-1 0,-1"
             style="fill:#000000;fill-opacity:1;fill-rule:nonzero;stroke:none"
             id="path84"
             inkscape:connector-curvature="0" /></g><g
           id="g86"
           transform="translate(66.7448,214.0265)"><path
             d="M 0,0 C 0.508,0.25 0.898,0.465 1.048,0.727 1.191,0.942 1.373,1.282 1.456,1.805 1.539,2.287 1.664,2.939 2.143,3.344 2.623,3.729 3.205,3.765 3.705,3.71 L 3.707,3.611 C 3.216,3.54 2.737,3.34 2.5,2.994 2.246,2.666 2.241,2.238 2.252,1.738 2.258,1.487 2.271,1.215 2.233,0.904 2.185,0.602 2.036,0.242 1.751,0.016 1.174,-0.451 0.472,-0.39 -0.004,-0.1 Z"
             style="fill:#000000;fill-opacity:1;fill-rule:nonzero;stroke:none"
             id="path88"
             inkscape:connector-curvature="0" /></g><g
           id="g90"
           transform="translate(59.1516,202.3097)"><path
             d="m 0,0 c -1.047,0 -2.032,0.408 -2.773,1.149 -1.528,1.528 -1.528,4.015 0,5.543 l 4.582,4.586 c 0.741,0.741 1.726,1.149 2.774,1.149 1.047,0 2.032,-0.407 2.773,-1.149 1.527,-1.528 1.527,-4.014 0,-5.542 L 2.773,1.149 C 2.033,0.408 1.048,0 0,0"
             style="fill:#569bbc;fill-opacity:1;fill-rule:nonzero;stroke:none"
             id="path92"
             inkscape:connector-curvature="0" /></g><g
           id="g94"
           transform="translate(63.7341,215.237)"><path
             d="m 0,0 c -1.132,0 -2.264,-0.432 -3.127,-1.296 l -4.582,-4.586 c -1.726,-1.726 -1.726,-4.524 0,-6.25 0.863,-0.863 1.995,-1.295 3.126,-1.295 1.132,0 2.264,0.432 3.127,1.296 l 4.583,4.586 c 1.725,1.726 1.725,4.524 -10e-4,6.25 C 2.263,-0.432 1.132,0 0,0 m 0,-1 c 0.914,0 1.773,-0.356 2.419,-1.002 1.333,-1.333 1.333,-3.503 0,-4.836 l -4.582,-4.586 c -0.646,-0.647 -1.505,-1.003 -2.42,-1.003 -0.914,0 -1.773,0.356 -2.419,1.002 -1.332,1.334 -1.332,3.503 0,4.836 l 4.583,4.587 C -1.773,-1.356 -0.914,-1 0,-1"
             style="fill:#000000;fill-opacity:1;fill-rule:nonzero;stroke:none"
             id="path96"
             inkscape:connector-curvature="0" /></g><g
           id="g98"
           transform="translate(55.7507,224.0255)"><path
             d="m 0,0 c 0.508,0.251 0.898,0.465 1.048,0.727 0.143,0.215 0.325,0.555 0.408,1.078 0.084,0.482 0.208,1.134 0.687,1.54 0.48,0.384 1.062,0.42 1.562,0.366 l 0.002,-0.1 C 3.216,3.54 2.737,3.341 2.5,2.995 2.246,2.666 2.241,2.238 2.252,1.738 2.258,1.487 2.271,1.215 2.233,0.904 2.186,0.602 2.036,0.242 1.751,0.016 1.175,-0.451 0.472,-0.389 -0.004,-0.1 Z"
             style="fill:#000000;fill-opacity:1;fill-rule:nonzero;stroke:none"
             id="path100"
             inkscape:connector-curvature="0" /></g><g
           id="g102"
           transform="translate(48.1574,212.3092)"><path
             d="m 0,0 c -1.047,0 -2.032,0.408 -2.773,1.149 -1.527,1.528 -1.527,4.015 0,5.542 l 4.583,4.587 c 0.74,0.741 1.725,1.149 2.773,1.149 1.048,0 2.032,-0.408 2.773,-1.149 1.527,-1.528 1.527,-4.014 0,-5.543 L 2.773,1.149 C 2.033,0.408 1.048,0 0,0"
             style="fill:#e48a54;fill-opacity:1;fill-rule:nonzero;stroke:none"
             id="path104"
             inkscape:connector-curvature="0" /></g><g
           id="g106"
           transform="translate(52.7399,225.2365)"><path
             d="m 0,0 c -1.132,0 -2.264,-0.432 -3.127,-1.296 l -4.582,-4.586 c -1.726,-1.726 -1.726,-4.524 0,-6.25 0.863,-0.864 1.995,-1.295 3.126,-1.295 1.132,0 2.264,0.431 3.127,1.296 l 4.583,4.586 c 1.725,1.726 1.725,4.524 -10e-4,6.25 C 2.264,-0.432 1.132,0 0,0 m 0,-1 c 0.914,0 1.773,-0.356 2.419,-1.002 1.333,-1.333 1.333,-3.503 10e-4,-4.836 l -4.583,-4.587 c -0.646,-0.646 -1.505,-1.002 -2.42,-1.002 -0.914,0 -1.773,0.356 -2.419,1.002 -1.332,1.333 -1.332,3.503 0,4.836 l 4.583,4.586 C -1.773,-1.356 -0.914,-1 0,-1"
             style="fill:#000000;fill-opacity:1;fill-rule:nonzero;stroke:none"
             id="path108"
             inkscape:connector-curvature="0" /></g><g
           id="g110"
           transform="translate(29.0334,216.5353)"><path
             d="m 0,0 c -0.508,-0.251 -0.898,-0.465 -1.048,-0.727 -0.144,-0.215 -0.326,-0.555 -0.408,-1.078 -0.084,-0.482 -0.208,-1.134 -0.687,-1.54 -0.48,-0.384 -1.063,-0.42 -1.562,-0.366 l -0.002,0.1 c 0.491,0.071 0.97,0.27 1.207,0.616 0.254,0.329 0.258,0.757 0.247,1.257 -0.005,0.251 -0.019,0.523 0.02,0.833 0.047,0.303 0.197,0.663 0.481,0.889 0.577,0.467 1.279,0.405 1.756,0.116 z"
             style="fill:#000000;fill-opacity:1;fill-rule:nonzero;stroke:none"
             id="path112"
             inkscape:connector-curvature="0" /></g><g
           id="g114"
           transform="translate(32.0437,215.8244)"><path
             d="m 0,0 c -1.048,0 -2.032,0.408 -2.773,1.149 -1.527,1.528 -1.527,4.015 0,5.543 l 4.583,4.586 c 0.74,0.741 1.726,1.149 2.773,1.149 1.048,0 2.032,-0.408 2.773,-1.149 1.527,-1.528 1.527,-4.014 0,-5.542 L 2.773,1.149 C 2.033,0.408 1.048,0 0,0 Z"
             style="fill:#569bbc;fill-opacity:1;fill-rule:nonzero;stroke:none"
             id="path116"
             inkscape:connector-curvature="0" /></g><g
           id="g118"
           transform="translate(36.6267,228.7516)"><path
             d="M 0,0 C -1.132,0 -2.264,-0.432 -3.127,-1.296 L -7.71,-5.882 c -1.725,-1.726 -1.725,-4.524 0.001,-6.25 0.863,-0.864 1.994,-1.295 3.126,-1.295 1.132,0 2.264,0.432 3.127,1.296 l 4.583,4.586 c 1.725,1.726 1.725,4.524 -10e-4,6.25 C 2.263,-0.432 1.131,0 0,0 m 0,-1 c 0.914,0 1.773,-0.356 2.419,-1.002 1.332,-1.333 1.333,-3.503 0,-4.836 l -4.583,-4.586 c -0.646,-0.647 -1.505,-1.003 -2.419,-1.003 -0.914,0 -1.773,0.356 -2.419,1.002 -1.333,1.333 -1.333,3.503 0,4.836 l 4.582,4.586 C -1.773,-1.356 -0.915,-1 0,-1"
             style="fill:#000000;fill-opacity:1;fill-rule:nonzero;stroke:none"
             id="path120"
             inkscape:connector-curvature="0" /></g></g></g><g
       id="g122"><g
         id="g124"
         clip-path="url(#clipPath128)"><g
           id="g130"><g
             id="g132"><path
               d="M 152.563,228.574 C 139.04,228.478 128.156,217.431 128.252,203.9 v 0 c 0.096,-13.531 11.137,-24.421 24.659,-24.325 v 0 c 13.522,0.096 24.407,11.144 24.311,24.675 v 0 c -0.096,13.472 -11.039,24.326 -24.481,24.325 v 0 c -0.059,0 -0.12,-10e-4 -0.178,-10e-4"
               style="fill:url(#radialGradient144);stroke:none"
               id="path146"
               inkscape:connector-curvature="0" /></g></g><g
           id="g148"
           transform="translate(150.572,185.4132)"><path
             d="m 0,0 c 0.251,-0.508 0.465,-0.898 0.726,-1.049 0.215,-0.143 0.555,-0.325 1.078,-0.408 0.482,-0.084 1.134,-0.208 1.539,-0.688 0.385,-0.48 0.42,-1.063 0.365,-1.562 l -0.1,-0.002 c -0.07,0.491 -0.269,0.97 -0.615,1.208 -0.328,0.254 -0.756,0.258 -1.256,0.247 -0.251,-0.005 -0.523,-0.019 -0.834,0.02 -0.302,0.048 -0.663,0.198 -0.888,0.483 -0.466,0.577 -0.404,1.279 -0.115,1.755 z"
             style="fill:#000000;fill-opacity:1;fill-rule:nonzero;stroke:none"
             id="path150"
             inkscape:connector-curvature="0" /></g><g
           id="g152"
           transform="translate(147.3645,184.505)"><path
             d="m 0,0 c -1.048,0 -2.032,0.408 -2.773,1.149 l -4.583,4.586 c -1.528,1.528 -1.529,4.014 -0.001,5.542 0.741,0.742 1.726,1.15 2.774,1.15 1.048,0 2.032,-0.407 2.772,-1.149 L 2.772,6.692 C 4.3,5.165 4.301,2.678 2.773,1.149 2.032,0.408 1.048,0 0,0"
             style="fill:#569bbc;fill-opacity:1;fill-rule:nonzero;stroke:none"
             id="path154"
             inkscape:connector-curvature="0" /></g><g
           id="g156"
           transform="translate(142.7805,197.4318)"><path
             d="m 0,0 c -1.132,0 -2.264,-0.432 -3.127,-1.296 -1.725,-1.726 -1.725,-4.524 10e-4,-6.249 l 4.583,-4.586 c 0.863,-0.864 1.995,-1.296 3.126,-1.296 1.132,0 2.264,0.432 3.127,1.296 1.726,1.727 1.726,4.524 0,6.25 L 3.127,-1.295 C 2.264,-0.432 1.132,0 0,0 m 0,-1 c 0.914,0 1.773,-0.356 2.419,-1.002 l 4.584,-4.586 c 1.332,-1.333 1.332,-3.502 0,-4.836 -0.646,-0.646 -1.505,-1.003 -2.42,-1.003 -0.913,0 -1.772,0.356 -2.418,1.003 l -4.584,4.585 c -1.332,1.334 -1.333,3.503 0,4.836 C -1.773,-1.356 -0.914,-1 0,-1"
             style="fill:#000000;fill-opacity:1;fill-rule:nonzero;stroke:none"
             id="path158"
             inkscape:connector-curvature="0" /></g><g
           id="g160"
           transform="translate(126.1516,195.2892)"><path
             d="M 0,0 C -0.508,-0.25 -0.898,-0.465 -1.048,-0.727 -1.191,-0.942 -1.373,-1.282 -1.456,-1.805 -1.54,-2.287 -1.664,-2.939 -2.143,-3.344 -2.623,-3.729 -3.205,-3.765 -3.705,-3.71 l -0.002,0.099 c 0.491,0.071 0.97,0.271 1.207,0.617 0.254,0.328 0.258,0.756 0.247,1.256 -0.005,0.251 -0.019,0.523 0.02,0.834 0.047,0.302 0.197,0.662 0.482,0.888 0.576,0.467 1.279,0.406 1.755,0.116 z"
             style="fill:#000000;fill-opacity:1;fill-rule:nonzero;stroke:none"
             id="path162"
             inkscape:connector-curvature="0" /></g><g
           id="g164"
           transform="translate(170.4367,194.8493)"><path
             d="M 0,0 C 0.508,0.25 0.898,0.465 1.048,0.727 1.192,0.942 1.374,1.282 1.456,1.805 1.54,2.287 1.664,2.939 2.143,3.344 2.623,3.729 3.206,3.765 3.705,3.71 L 3.707,3.611 C 3.216,3.54 2.737,3.34 2.5,2.994 2.246,2.666 2.242,2.238 2.253,1.738 2.258,1.487 2.272,1.215 2.233,0.904 2.186,0.602 2.036,0.242 1.752,0.016 1.175,-0.451 0.473,-0.39 -0.004,-0.1 Z"
             style="fill:#000000;fill-opacity:1;fill-rule:nonzero;stroke:none"
             id="path166"
             inkscape:connector-curvature="0" /></g><g
           id="g168"
           transform="translate(162.8439,183.133)"><path
             d="m 0,0 c -1.048,0 -2.033,0.408 -2.773,1.148 -1.528,1.529 -1.528,4.016 0,5.543 l 4.582,4.586 c 0.741,0.742 1.725,1.151 2.773,1.151 1.048,0 2.033,-0.408 2.773,-1.15 1.528,-1.528 1.528,-4.014 0,-5.543 L 2.773,1.149 C 2.032,0.408 1.048,0 0,0"
             style="fill:#dda5cb;fill-opacity:1;fill-rule:nonzero;stroke:none"
             id="path170"
             inkscape:connector-curvature="0" /></g><g
           id="g172"
           transform="translate(167.4265,196.0597)"><path
             d="M 0,0 C -1.132,0 -2.264,-0.432 -3.127,-1.296 L -7.71,-5.882 c -1.725,-1.726 -1.725,-4.524 0.001,-6.25 0.863,-0.863 1.995,-1.295 3.126,-1.295 1.132,0 2.264,0.432 3.127,1.296 l 4.583,4.586 c 1.725,1.726 1.725,4.524 -10e-4,6.25 C 2.263,-0.432 1.131,0 0,0 m 0,-1 c 0.914,0 1.773,-0.356 2.419,-1.002 1.333,-1.333 1.333,-3.503 0,-4.836 l -4.582,-4.586 c -0.647,-0.647 -1.506,-1.003 -2.42,-1.003 -0.914,0 -1.773,0.356 -2.419,1.002 -1.332,1.334 -1.333,3.503 0,4.836 l 4.583,4.587 C -1.773,-1.356 -0.914,-1 0,-1"
             style="fill:#000000;fill-opacity:1;fill-rule:nonzero;stroke:none"
             id="path174"
             inkscape:connector-curvature="0" /></g><g
           id="g176"
           transform="translate(163.6843,224.0255)"><path
             d="m 0,0 c 0.508,0.251 0.898,0.465 1.048,0.727 0.143,0.215 0.325,0.555 0.408,1.078 0.083,0.482 0.208,1.134 0.687,1.54 0.48,0.384 1.062,0.42 1.562,0.366 l 0.002,-0.1 C 3.216,3.54 2.737,3.341 2.5,2.995 2.246,2.666 2.241,2.238 2.252,1.738 2.258,1.487 2.271,1.215 2.233,0.904 2.185,0.602 2.036,0.242 1.751,0.016 1.174,-0.451 0.472,-0.389 -0.004,-0.1 Z"
             style="fill:#000000;fill-opacity:1;fill-rule:nonzero;stroke:none"
             id="path178"
             inkscape:connector-curvature="0" /></g><g
           id="g180"
           transform="translate(156.091,212.3092)"><path
             d="m 0,0 c -1.048,0 -2.033,0.408 -2.773,1.149 -1.528,1.528 -1.528,4.015 0,5.543 l 4.582,4.586 c 0.741,0.741 1.725,1.149 2.773,1.149 1.048,0 2.033,-0.407 2.773,-1.149 1.528,-1.528 1.528,-4.014 0,-5.542 L 2.773,1.149 C 2.032,0.408 1.048,0 0,0"
             style="fill:#e48a54;fill-opacity:1;fill-rule:nonzero;stroke:none"
             id="path182"
             inkscape:connector-curvature="0" /></g><g
           id="g184"
           transform="translate(160.6735,225.2365)"><path
             d="M 0,0 C -1.132,0 -2.264,-0.432 -3.127,-1.296 L -7.71,-5.882 c -1.725,-1.726 -1.725,-4.524 0.001,-6.25 0.863,-0.864 1.995,-1.295 3.126,-1.295 1.132,0 2.264,0.431 3.127,1.296 l 4.583,4.586 c 1.725,1.726 1.725,4.524 -10e-4,6.25 C 2.263,-0.432 1.132,0 0,0 m 0,-1 c 0.914,0 1.773,-0.356 2.419,-1.002 1.333,-1.333 1.333,-3.503 10e-4,-4.836 l -4.583,-4.587 c -0.646,-0.646 -1.505,-1.002 -2.42,-1.002 -0.914,0 -1.773,0.356 -2.419,1.002 -1.332,1.333 -1.333,3.503 0,4.836 l 4.583,4.586 C -1.773,-1.356 -0.914,-1 0,-1"
             style="fill:#000000;fill-opacity:1;fill-rule:nonzero;stroke:none"
             id="path186"
             inkscape:connector-curvature="0" /></g></g></g><g
       id="g188"><g
         id="g190"
         clip-path="url(#clipPath194)"><g
           id="g196"><g
             id="g198"><path
               d="m 152.355,142.112 c -13.523,-0.096 -24.406,-11.144 -24.31,-24.674 v 0 c 0.096,-13.53 11.136,-24.421 24.659,-24.324 v 0 c 13.522,0.095 24.407,11.143 24.311,24.674 v 0 c -0.097,13.471 -11.039,24.325 -24.481,24.324 v 0 c -0.059,0 -0.12,0 -0.179,0"
               style="fill:url(#radialGradient210);stroke:none"
               id="path212"
               inkscape:connector-curvature="0" /></g></g></g></g><g
       id="g214"><g
         id="g216"
         clip-path="url(#clipPath220)"><g
           id="g222"
           transform="translate(150.3645,98.9518)"><path
             d="m 0,0 c 0.251,-0.508 0.465,-0.898 0.727,-1.049 0.214,-0.144 0.554,-0.326 1.077,-0.408 0.482,-0.084 1.135,-0.208 1.539,-0.689 0.385,-0.48 0.42,-1.062 0.365,-1.561 L 3.609,-3.709 c -0.071,0.49 -0.27,0.97 -0.616,1.207 C 2.665,-2.247 2.237,-2.243 1.737,-2.254 1.486,-2.26 1.214,-2.273 0.903,-2.234 0.601,-2.187 0.24,-2.036 0.015,-1.752 -0.451,-1.175 -0.389,-0.473 -0.1,0.004 Z"
             style="fill:#000000;fill-opacity:1;fill-rule:nonzero;stroke:none"
             id="path224"
             inkscape:connector-curvature="0" /></g><g
           id="g226"
           transform="translate(147.156,98.0436)"><path
             d="m 0,0 c -1.047,0 -2.032,0.408 -2.772,1.148 l -4.584,4.586 c -1.527,1.528 -1.527,4.015 0,5.543 0.74,0.742 1.725,1.15 2.773,1.15 1.047,0 2.033,-0.408 2.773,-1.15 L 2.773,6.691 C 4.301,5.163 4.301,2.678 2.774,1.149 2.033,0.408 1.048,0 0,0"
             style="fill:#569bbc;fill-opacity:1;fill-rule:nonzero;stroke:none"
             id="path228"
             inkscape:connector-curvature="0" /></g><g
           id="g230"
           transform="translate(142.5734,110.9704)"><path
             d="m 0,0 c -1.132,0 -2.264,-0.433 -3.127,-1.296 -1.725,-1.726 -1.725,-4.524 10e-4,-6.25 l 4.583,-4.586 c 0.863,-0.863 1.995,-1.295 3.126,-1.295 1.132,0 2.264,0.432 3.127,1.296 1.725,1.726 1.725,4.524 0,6.249 L 3.126,-1.296 C 2.263,-0.433 1.131,0 0,0 m 0,-1 c 0.914,0 1.773,-0.356 2.419,-1.003 l 4.583,-4.585 c 1.333,-1.334 1.333,-3.503 0.001,-4.836 -0.646,-0.647 -1.505,-1.003 -2.42,-1.003 -0.914,0 -1.773,0.356 -2.419,1.002 l -4.583,4.586 C -3.752,-5.506 -3.752,-3.337 -2.42,-2.003 -1.773,-1.356 -0.914,-1 0,-1"
             style="fill:#000000;fill-opacity:1;fill-rule:nonzero;stroke:none"
             id="path232"
             inkscape:connector-curvature="0" /></g><g
           id="g234"
           transform="translate(156.3601,111.9518)"><path
             d="m 0,0 c 0.251,-0.508 0.465,-0.898 0.727,-1.049 0.214,-0.143 0.554,-0.325 1.077,-0.407 0.482,-0.084 1.134,-0.209 1.539,-0.689 0.385,-0.48 0.42,-1.062 0.365,-1.562 l -0.1,-0.002 c -0.07,0.49 -0.269,0.97 -0.615,1.208 -0.328,0.254 -0.756,0.259 -1.256,0.247 -0.251,-0.005 -0.523,-0.018 -0.834,0.02 -0.302,0.047 -0.663,0.198 -0.888,0.482 -0.466,0.578 -0.404,1.279 -0.115,1.756 z"
             style="fill:#000000;fill-opacity:1;fill-rule:nonzero;stroke:none"
             id="path236"
             inkscape:connector-curvature="0" /></g><g
           id="g238"
           transform="translate(153.1525,111.0436)"><path
             d="m 0,0 c -1.048,0 -2.033,0.408 -2.773,1.149 l -4.584,4.585 c -1.527,1.529 -1.527,4.015 0,5.543 0.74,0.742 1.725,1.15 2.773,1.15 1.048,0 2.032,-0.408 2.773,-1.149 L 2.772,6.692 C 4.299,5.164 4.3,2.678 2.773,1.149 2.032,0.408 1.047,0 0,0"
             style="fill:#dda5cb;fill-opacity:1;fill-rule:nonzero;stroke:none"
             id="path240"
             inkscape:connector-curvature="0" /></g><g
           id="g242"
           transform="translate(148.569,123.9704)"><path
             d="m 0,0 c -1.132,0 -2.264,-0.432 -3.127,-1.296 v 0 c -1.725,-1.726 -1.725,-4.523 0,-6.25 l 4.584,-4.585 c 0.863,-0.864 1.995,-1.296 3.126,-1.296 1.132,0 2.264,0.432 3.127,1.296 1.725,1.727 1.725,4.524 0,6.25 L 3.126,-1.296 C 2.263,-0.432 1.131,0 0,0 m 0,-1 c 0.914,0 1.773,-0.355 2.419,-1.002 l 4.583,-4.586 c 1.333,-1.333 1.333,-3.503 0.001,-4.836 -0.647,-0.646 -1.505,-1.003 -2.42,-1.003 -0.914,0 -1.773,0.357 -2.419,1.003 l -4.583,4.585 C -3.752,-5.506 -3.752,-3.336 -2.42,-2.003 -1.773,-1.356 -0.915,-1 0,-1"
             style="fill:#000000;fill-opacity:1;fill-rule:nonzero;stroke:none"
             id="path244"
             inkscape:connector-curvature="0" /></g><g
           id="g246"
           transform="translate(125.944,108.8278)"><path
             d="m 0,0 c -0.508,-0.251 -0.898,-0.466 -1.048,-0.727 -0.143,-0.215 -0.325,-0.555 -0.408,-1.079 -0.083,-0.481 -0.208,-1.133 -0.687,-1.539 -0.48,-0.384 -1.062,-0.421 -1.562,-0.366 l -0.002,0.1 c 0.491,0.071 0.97,0.27 1.207,0.616 0.254,0.329 0.259,0.757 0.248,1.257 -0.006,0.251 -0.019,0.522 0.019,0.834 0.047,0.301 0.197,0.662 0.482,0.887 0.577,0.467 1.279,0.406 1.755,0.117 z"
             style="fill:#000000;fill-opacity:1;fill-rule:nonzero;stroke:none"
             id="path248"
             inkscape:connector-curvature="0" /></g><g
           id="g250"
           transform="translate(128.9538,108.1169)"><path
             d="m 0,0 c -1.047,0 -2.032,0.408 -2.772,1.148 -1.527,1.529 -1.527,4.015 -0.001,5.543 l 4.583,4.586 c 0.741,0.742 1.726,1.151 2.774,1.151 1.047,0 2.032,-0.408 2.772,-1.15 C 8.883,9.75 8.884,7.264 7.357,5.735 L 2.774,1.149 C 2.033,0.408 1.048,0 0,0 Z"
             style="fill:#e48a54;fill-opacity:1;fill-rule:nonzero;stroke:none"
             id="path252"
             inkscape:connector-curvature="0" /></g><g
           id="g254"
           transform="translate(133.5373,121.0436)"><path
             d="m 0,0 c -1.132,0 -2.264,-0.432 -3.127,-1.296 l -4.582,-4.586 c -1.726,-1.726 -1.726,-4.523 0,-6.25 0.863,-0.863 1.995,-1.295 3.126,-1.295 1.132,0 2.264,0.432 3.127,1.296 l 4.583,4.586 c 1.725,1.727 1.725,4.524 0,6.25 C 2.264,-0.432 1.132,0 0,0 m 0,-1 c 0.914,0 1.773,-0.355 2.419,-1.002 1.333,-1.333 1.333,-3.503 10e-4,-4.836 l -4.583,-4.586 c -0.646,-0.647 -1.505,-1.003 -2.42,-1.003 -0.914,0 -1.773,0.356 -2.419,1.002 -1.332,1.333 -1.332,3.503 0,4.836 l 4.583,4.587 C -1.773,-1.355 -0.914,-1 0,-1"
             style="fill:#000000;fill-opacity:1;fill-rule:nonzero;stroke:none"
             id="path256"
             inkscape:connector-curvature="0" /></g><g
           id="g258"
           transform="translate(170.2297,108.3874)"><path
             d="m 0,0 c 0.508,0.251 0.898,0.465 1.048,0.727 0.143,0.214 0.325,0.555 0.408,1.078 0.084,0.482 0.208,1.134 0.687,1.54 0.48,0.384 1.062,0.421 1.562,0.366 L 3.707,3.61 C 3.216,3.54 2.737,3.341 2.5,2.994 2.246,2.666 2.241,2.238 2.252,1.738 2.258,1.486 2.271,1.215 2.233,0.904 2.186,0.602 2.036,0.242 1.751,0.016 1.175,-0.451 0.472,-0.39 -0.004,-0.1 Z"
             style="fill:#000000;fill-opacity:1;fill-rule:nonzero;stroke:none"
             id="path260"
             inkscape:connector-curvature="0" /></g><g
           id="g262"
           transform="translate(162.6364,96.6706)"><path
             d="m 0,0 c -1.048,0 -2.033,0.408 -2.773,1.149 -1.528,1.528 -1.528,4.015 -10e-4,5.543 l 4.583,4.586 c 0.741,0.742 1.726,1.15 2.773,1.15 1.048,0 2.033,-0.408 2.773,-1.15 C 8.883,9.75 8.883,7.264 7.356,5.736 L 2.773,1.149 C 2.032,0.408 1.048,0 0,0"
             style="fill:#dda5cb;fill-opacity:1;fill-rule:nonzero;stroke:none"
             id="path264"
             inkscape:connector-curvature="0" /></g><g
           id="g266"
           transform="translate(167.2189,109.5983)"><path
             d="m 0,0 c -1.132,0 -2.264,-0.432 -3.127,-1.296 l -4.582,-4.586 c -1.726,-1.726 -1.726,-4.524 0,-6.25 0.863,-0.864 1.995,-1.296 3.126,-1.296 1.132,0 2.264,0.433 3.127,1.296 l 4.583,4.587 C 4.852,-5.819 4.852,-3.021 3.126,-1.296 2.263,-0.432 1.132,0 0,0 m 0,-1 c 0.914,0 1.773,-0.356 2.419,-1.003 1.333,-1.333 1.333,-3.502 10e-4,-4.836 l -4.583,-4.586 c -0.646,-0.646 -1.505,-1.003 -2.42,-1.003 -0.914,0 -1.773,0.357 -2.419,1.003 -1.332,1.333 -1.332,3.502 0,4.836 l 4.583,4.586 C -1.773,-1.356 -0.914,-1 0,-1"
             style="fill:#000000;fill-opacity:1;fill-rule:nonzero;stroke:none"
             id="path268"
             inkscape:connector-curvature="0" /></g><g
           id="g270"
           transform="translate(174.4709,127.5651)"><path
             d="M 0,0 C 0.508,0.25 0.898,0.465 1.048,0.726 1.191,0.941 1.373,1.281 1.456,1.805 1.54,2.286 1.664,2.938 2.143,3.344 2.623,3.729 3.205,3.765 3.705,3.71 L 3.707,3.61 C 3.216,3.539 2.737,3.34 2.5,2.994 2.246,2.665 2.242,2.237 2.253,1.737 2.258,1.486 2.272,1.215 2.233,0.904 2.186,0.602 2.036,0.241 1.751,0.016 1.175,-0.451 0.472,-0.39 -0.004,-0.101 Z"
             style="fill:#000000;fill-opacity:1;fill-rule:nonzero;stroke:none"
             id="path272"
             inkscape:connector-curvature="0" /></g><g
           id="g274"
           transform="translate(166.8767,115.8483)"><path
             d="m 0,0 c -1.047,0 -2.032,0.408 -2.772,1.148 -1.527,1.529 -1.527,4.015 -0.001,5.543 l 4.583,4.586 c 0.741,0.742 1.726,1.151 2.774,1.151 1.047,0 2.032,-0.408 2.772,-1.15 C 8.883,9.75 8.884,7.264 7.357,5.735 L 2.774,1.149 C 2.033,0.408 1.048,0 0,0"
             style="fill:#569bbc;fill-opacity:1;fill-rule:nonzero;stroke:none"
             id="path276"
             inkscape:connector-curvature="0" /></g><g
           id="g278"
           transform="translate(171.4602,128.7751)"><path
             d="m 0,0 c -1.132,0 -2.264,-0.432 -3.127,-1.296 l -4.582,-4.586 c -1.726,-1.726 -1.726,-4.523 0,-6.25 0.863,-0.863 1.995,-1.295 3.126,-1.295 1.132,0 2.264,0.432 3.127,1.296 l 4.583,4.586 c 1.725,1.727 1.725,4.524 -10e-4,6.25 C 2.264,-0.432 1.132,0 0,0 m 0,-1 c 0.914,0 1.773,-0.355 2.419,-1.002 1.333,-1.333 1.333,-3.503 10e-4,-4.836 l -4.583,-4.586 c -0.646,-0.647 -1.505,-1.003 -2.42,-1.003 -0.914,0 -1.773,0.356 -2.419,1.002 -1.332,1.333 -1.332,3.503 0,4.836 l 4.583,4.586 C -1.773,-1.355 -0.914,-1 0,-1"
             style="fill:#000000;fill-opacity:1;fill-rule:nonzero;stroke:none"
             id="path280"
             inkscape:connector-curvature="0" /></g><g
           id="g282"
           transform="translate(163.4768,137.5641)"><path
             d="M 0,0 C 0.508,0.25 0.898,0.465 1.048,0.727 1.191,0.941 1.373,1.282 1.456,1.805 1.54,2.286 1.664,2.939 2.143,3.344 2.623,3.729 3.205,3.765 3.705,3.71 L 3.707,3.61 C 3.216,3.539 2.737,3.34 2.5,2.994 2.246,2.665 2.242,2.238 2.253,1.737 2.258,1.486 2.272,1.215 2.233,0.904 2.186,0.602 2.036,0.241 1.751,0.016 1.175,-0.451 0.472,-0.39 -0.004,-0.101 Z"
             style="fill:#000000;fill-opacity:1;fill-rule:nonzero;stroke:none"
             id="path284"
             inkscape:connector-curvature="0" /></g><g
           id="g286"
           transform="translate(155.8835,125.8473)"><path
             d="m 0,0 c -1.047,0 -2.033,0.408 -2.773,1.149 -1.528,1.529 -1.528,4.014 -10e-4,5.542 l 4.583,4.587 c 0.741,0.742 1.726,1.15 2.773,1.15 1.048,0 2.033,-0.408 2.773,-1.15 C 8.883,9.75 8.883,7.264 7.356,5.735 L 2.773,1.149 C 2.033,0.408 1.048,0 0,0"
             style="fill:#e48a54;fill-opacity:1;fill-rule:nonzero;stroke:none"
             id="path288"
             inkscape:connector-curvature="0" /></g><g
           id="g290"
           transform="translate(160.466,138.7751)"><path
             d="m 0,0 c -1.132,0 -2.263,-0.433 -3.127,-1.296 l -4.582,-4.587 c -1.726,-1.725 -1.726,-4.523 0,-6.249 0.863,-0.864 1.995,-1.296 3.126,-1.296 1.132,0 2.264,0.432 3.127,1.296 l 4.583,4.586 c 1.725,1.727 1.725,4.525 0,6.25 C 2.264,-0.433 1.132,0 0,0 m 0,-1 c 0.914,0 1.773,-0.356 2.419,-1.003 1.333,-1.333 1.333,-3.503 10e-4,-4.836 l -4.583,-4.586 c -0.646,-0.646 -1.505,-1.003 -2.42,-1.003 -0.914,0 -1.773,0.356 -2.419,1.002 -1.332,1.334 -1.332,3.503 0,4.836 l 4.583,4.587 C -1.773,-1.356 -0.914,-1 0,-1"
             style="fill:#000000;fill-opacity:1;fill-rule:nonzero;stroke:none"
             id="path292"
             inkscape:connector-curvature="0" /></g><g
           id="g294"
           transform="translate(136.7595,130.0729)"><path
             d="M 0,0 C -0.508,-0.25 -0.898,-0.465 -1.048,-0.727 -1.192,-0.941 -1.374,-1.282 -1.456,-1.805 -1.54,-2.286 -1.664,-2.938 -2.143,-3.344 -2.623,-3.729 -3.206,-3.765 -3.705,-3.71 l -0.002,0.1 c 0.491,0.071 0.97,0.27 1.207,0.616 0.254,0.329 0.258,0.756 0.247,1.257 -0.005,0.251 -0.019,0.522 0.02,0.833 0.047,0.302 0.197,0.663 0.481,0.888 0.577,0.467 1.279,0.406 1.756,0.117 z"
             style="fill:#000000;fill-opacity:1;fill-rule:nonzero;stroke:none"
             id="path296"
             inkscape:connector-curvature="0" /></g><g
           id="g298"
           transform="translate(139.7697,129.362)"><path
             d="m 0,0 c -1.048,0 -2.032,0.408 -2.773,1.149 -1.527,1.529 -1.527,4.015 0,5.543 l 4.582,4.586 c 0.741,0.742 1.726,1.15 2.774,1.15 1.048,0 2.032,-0.407 2.773,-1.149 1.527,-1.528 1.527,-4.014 0,-5.543 L 2.773,1.15 C 2.033,0.409 1.048,0 0,0"
             style="fill:#569bbc;fill-opacity:1;fill-rule:nonzero;stroke:none"
             id="path300"
             inkscape:connector-curvature="0" /></g><g
           id="g302"
           transform="translate(144.3527,142.2897)"><path
             d="M 0,0 C -1.132,0 -2.264,-0.432 -3.127,-1.296 L -7.71,-5.882 c -1.725,-1.726 -1.725,-4.523 0.001,-6.25 0.863,-0.863 1.995,-1.295 3.126,-1.295 1.132,0 2.264,0.432 3.127,1.296 l 4.583,4.586 c 1.725,1.727 1.725,4.524 -10e-4,6.25 C 2.263,-0.432 1.131,0 0,0 m 0,-1 c 0.914,0 1.773,-0.355 2.419,-1.002 1.333,-1.334 1.333,-3.503 0,-4.836 l -4.583,-4.587 c -0.646,-0.646 -1.505,-1.002 -2.419,-1.002 -0.914,0 -1.773,0.356 -2.419,1.002 -1.333,1.333 -1.333,3.503 0,4.836 l 4.582,4.586 C -1.773,-1.356 -0.914,-1 0,-1"
             style="fill:#000000;fill-opacity:1;fill-rule:nonzero;stroke:none"
             id="path304"
             inkscape:connector-curvature="0" /></g></g></g><g
       id="g306"><g
         id="g308"
         clip-path="url(#clipPath312)"><g
           id="g314"
           transform="translate(110.5197,125.9792)"><path
             d="M 0,0 C 0.036,-0.565 0.084,-1.008 0.267,-1.247 0.41,-1.463 0.654,-1.762 1.104,-2.039 1.517,-2.301 2.072,-2.668 2.261,-3.266 2.431,-3.857 2.24,-4.408 1.997,-4.849 l -0.093,0.037 c 0.123,0.48 0.124,0.999 -0.104,1.352 -0.205,0.36 -0.598,0.529 -1.064,0.711 -0.234,0.092 -0.49,0.184 -0.762,0.339 -0.261,0.161 -0.536,0.438 -0.634,0.787 -0.208,0.713 0.119,1.337 0.569,1.665 z"
             style="fill:#000000;fill-opacity:1;fill-rule:nonzero;stroke:none"
             id="path316"
             inkscape:connector-curvature="0" /></g><g
           id="g318"
           transform="translate(108.7189,126.0719)"><path
             d="m 0,0 c -1.596,0 -3.02,0.954 -3.627,2.431 l -2.467,5.995 c -0.822,1.998 0.134,4.294 2.132,5.117 0.478,0.196 0.98,0.297 1.492,0.297 1.596,0 3.02,-0.954 3.627,-2.431 L 3.624,5.413 C 4.446,3.415 3.49,1.12 1.492,0.297 1.014,0.101 0.512,0 0,0"
             style="fill:#f4777f;fill-opacity:1;fill-rule:nonzero;stroke:none"
             id="path320"
             inkscape:connector-curvature="0" /></g><g
           id="g322"
           transform="translate(106.2492,140.4108)"><path
             d="m 0,0 c -0.562,0 -1.132,-0.107 -1.683,-0.334 -2.256,-0.93 -3.332,-3.513 -2.403,-5.77 L -1.62,-12.1 c 0.703,-1.707 2.351,-2.739 4.09,-2.739 0.561,0 1.132,0.108 1.683,0.335 2.256,0.93 3.332,3.512 2.403,5.769 L 4.089,-2.739 C 3.387,-1.032 1.738,0 0,0 m 0,-1 c 1.393,0 2.635,-0.832 3.165,-2.12 l 2.466,-5.996 c 0.718,-1.743 -0.117,-3.745 -1.86,-4.464 -0.417,-0.172 -0.854,-0.259 -1.301,-0.259 -1.393,0 -2.635,0.832 -3.165,2.12 l -2.467,5.996 c -0.717,1.744 0.118,3.745 1.86,4.464 C -0.884,-1.087 -0.447,-1 0,-1"
             style="fill:#000000;fill-opacity:1;fill-rule:nonzero;stroke:none"
             id="path324"
             inkscape:connector-curvature="0" /></g><g
           id="g326"
           transform="translate(107.4841,147.0016)"><path
             d="M 0,0 C 4.629,4.579 9.802,4.342 15.366,0.561"
             style="fill:none;stroke:#000000;stroke-width:0.5;stroke-linecap:butt;stroke-linejoin:miter;stroke-miterlimit:10;stroke-dasharray:none;stroke-opacity:1"
             id="path328"
             inkscape:connector-curvature="0" /></g><g
           id="g330"
           transform="translate(120.2688,146.7672)"><path
             d="M 0,0 7.656,-3.499 2.776,3.359 Z"
             style="fill:#000000;fill-opacity:1;fill-rule:nonzero;stroke:none"
             id="path332"
             inkscape:connector-curvature="0" /></g><g
           id="g334"
           transform="translate(88.092,124.8629)"><path
             d="m 0,0 c -0.45,-0.344 -0.792,-0.629 -0.89,-0.914 -0.1,-0.238 -0.214,-0.607 -0.194,-1.135 0.01,-0.489 0.012,-1.154 -0.381,-1.643 -0.398,-0.469 -0.963,-0.616 -1.463,-0.658 l -0.022,0.098 c 0.469,0.164 0.901,0.45 1.068,0.836 0.187,0.371 0.109,0.791 0.003,1.28 -0.054,0.245 -0.119,0.509 -0.141,0.822 -0.011,0.306 0.067,0.688 0.304,0.964 0.477,0.568 1.178,0.642 1.701,0.449 z"
             style="fill:#000000;fill-opacity:1;fill-rule:nonzero;stroke:none"
             id="path336"
             inkscape:connector-curvature="0" /></g><g
           id="g338"
           transform="translate(90.4299,124.6676)"><path
             d="m 0,0 c -0.779,0 -1.535,0.23 -2.185,0.668 -0.869,0.585 -1.458,1.474 -1.658,2.502 -0.201,1.028 0.011,2.072 0.596,2.941 l 3.623,5.377 c 0.73,1.083 1.948,1.73 3.256,1.73 0.78,0 1.535,-0.231 2.185,-0.668 C 6.686,11.965 7.275,11.076 7.476,10.048 7.676,9.02 7.464,7.976 6.879,7.106 L 3.256,1.729 C 2.526,0.646 1.309,0 0,0 Z"
             style="fill:#665391;fill-opacity:1;fill-rule:nonzero;stroke:none"
             id="path340"
             inkscape:connector-curvature="0" /></g><g
           id="g342"
           transform="translate(94.0617,138.3854)"><path
             d="m 0,0 c -1.421,0 -2.816,-0.684 -3.67,-1.95 l -3.623,-5.377 c -1.365,-2.026 -0.829,-4.774 1.198,-6.138 0.757,-0.509 1.615,-0.753 2.464,-0.753 1.421,0 2.816,0.684 3.67,1.95 l 3.623,5.377 C 5.027,-4.865 4.491,-2.117 2.464,-0.753 1.707,-0.244 0.849,0 0,0 m 0,-1 c 0.68,0 1.339,-0.201 1.906,-0.583 0.758,-0.51 1.272,-1.285 1.448,-2.183 0.174,-0.897 -0.011,-1.808 -0.521,-2.566 l -3.624,-5.377 c -0.637,-0.945 -1.698,-1.509 -2.84,-1.509 -0.68,0 -1.339,0.201 -1.906,0.583 -0.758,0.51 -1.273,1.285 -1.447,2.183 -0.176,0.897 0.009,1.808 0.52,2.566 l 3.624,5.377 C -2.204,-1.563 -1.142,-1 0,-1"
             style="fill:#000000;fill-opacity:1;fill-rule:nonzero;stroke:none"
             id="path344"
             inkscape:connector-curvature="0" /></g><g
           id="g346"
           transform="translate(93.2482,153.8307)"><path
             d="M 0,0 C -0.083,0.56 -0.168,0.997 -0.37,1.221 -0.531,1.423 -0.799,1.7 -1.271,1.938 -1.704,2.166 -2.288,2.485 -2.526,3.065 -2.745,3.64 -2.6,4.205 -2.395,4.665 L -2.299,4.636 C -2.382,4.147 -2.339,3.63 -2.083,3.297 -1.848,2.955 -1.443,2.82 -0.963,2.677 -0.723,2.605 -0.46,2.535 -0.176,2.403 0.098,2.265 0.395,2.012 0.522,1.672 0.789,0.979 0.515,0.33 0.094,-0.035 Z"
             style="fill:#000000;fill-opacity:1;fill-rule:nonzero;stroke:none"
             id="path348"
             inkscape:connector-curvature="0" /></g><g
           id="g350"
           transform="translate(98.342,140.2897)"><path
             d="m 0,0 c -1.479,0 -2.818,0.817 -3.493,2.133 l -2.958,5.768 c -0.986,1.922 -0.225,4.29 1.697,5.278 0.561,0.288 1.162,0.433 1.787,0.433 1.48,0 2.818,-0.817 3.493,-2.133 L 3.484,5.711 C 4.47,3.789 3.709,1.421 1.787,0.434 1.227,0.146 0.625,0 0,0 Z"
             style="fill:#f7f48b;fill-opacity:1;fill-rule:nonzero;stroke:none"
             id="path352"
             inkscape:connector-curvature="0" /></g><g
           id="g354"
           transform="translate(95.3757,154.402)"><path
             d="m 0,0 c -0.68,0 -1.37,-0.157 -2.016,-0.489 -2.171,-1.115 -3.027,-3.779 -1.914,-5.95 l 2.959,-5.769 c 0.783,-1.526 2.332,-2.404 3.937,-2.404 0.68,0 1.37,0.157 2.016,0.489 2.171,1.115 3.028,3.778 1.914,5.95 L 3.937,-2.404 C 3.154,-0.878 1.605,0 0,0 m 0,-1 c 1.291,0 2.458,-0.713 3.047,-1.86 l 2.959,-5.77 c 0.86,-1.677 0.196,-3.742 -1.481,-4.603 -0.489,-0.251 -1.014,-0.379 -1.559,-0.379 -1.291,0 -2.459,0.713 -3.047,1.86 l -2.959,5.77 C -3.9,-4.306 -3.236,-2.24 -1.559,-1.379 -1.07,-1.128 -0.545,-1 0,-1"
             style="fill:#000000;fill-opacity:1;fill-rule:nonzero;stroke:none"
             id="path356"
             inkscape:connector-curvature="0" /></g><g
           id="g358"
           transform="translate(75.7897,204.0749)"><path
             d="M 0,0 H 36.12"
             style="fill:none;stroke:#000000;stroke-width:1;stroke-linecap:butt;stroke-linejoin:miter;stroke-miterlimit:10;stroke-dasharray:none;stroke-opacity:1"
             id="path360"
             inkscape:connector-curvature="0" /></g><g
           id="g362"
           transform="translate(109.9284,201.1696)"><path
             d="M 0,0 10.841,2.905 0,5.811 Z"
             style="fill:#000000;fill-opacity:1;fill-rule:nonzero;stroke:none"
             id="path364"
             inkscape:connector-curvature="0" /></g></g></g><text
       transform="matrix(1,0,0,-1,72.1772,228.5757)"
       style="font-variant:normal;font-weight:normal;font-stretch:normal;font-size:12px;font-family:'Myriad Pro';-inkscape-font-specification:MyriadPro-Regular;writing-mode:lr-tb;fill:#d95f03;fill-opacity:1;fill-rule:nonzero;stroke:none;"
       id="text368"><tspan
         x="0 6.8280001 13.416 17.388 21.360001 24.191999 30.204 36.863998 42.875999 48.251999"
         y="0"
         sodipodi:role="line"
         id="tspan366"
         style="fill:#d95f03;fill-opacity:1;">bottleneck</tspan></text>
<g
       id="g370"><g
         id="g372"
         clip-path="url(#clipPath376)"><g
           id="g378"><g
             id="g380"><path
               d="M 43.948,60.623 C 30.425,60.526 19.541,49.479 19.638,35.949 v 0 C 19.734,22.417 30.774,11.527 44.297,11.624 v 0 c 13.523,0.097 24.406,11.143 24.31,24.674 v 0 C 68.511,49.77 57.568,60.625 44.126,60.624 v 0 c -0.059,0 -0.119,0 -0.178,-0.001"
               style="fill:url(#radialGradient392);stroke:none"
               id="path394"
               inkscape:connector-curvature="0" /></g></g><g
           id="g396"
           transform="translate(41.9577,17.4616)"><path
             d="m 0,0 c 0.25,-0.508 0.465,-0.897 0.726,-1.049 0.215,-0.143 0.555,-0.325 1.078,-0.407 0.481,-0.084 1.134,-0.209 1.539,-0.689 0.385,-0.48 0.42,-1.062 0.365,-1.562 l -0.1,-0.002 C 3.537,-3.218 3.338,-2.739 2.992,-2.501 2.664,-2.247 2.237,-2.242 1.736,-2.254 1.485,-2.259 1.214,-2.272 0.903,-2.233 0.601,-2.186 0.24,-2.036 0.015,-1.751 -0.452,-1.174 -0.39,-0.472 -0.1,0.005 Z"
             style="fill:#000000;fill-opacity:1;fill-rule:nonzero;stroke:none"
             id="path398"
             inkscape:connector-curvature="0" /></g><g
           id="g400"
           transform="translate(38.7497,16.5534)"><path
             d="m 0,0 c -1.048,0 -2.032,0.408 -2.773,1.148 l -4.583,4.586 c -1.527,1.529 -1.527,4.015 -0.001,5.543 0.741,0.742 1.726,1.15 2.774,1.15 1.047,0 2.032,-0.408 2.773,-1.15 L 2.773,6.692 C 4.3,5.164 4.3,2.678 2.773,1.149 2.033,0.408 1.048,0 0,0 Z"
             style="fill:#569bbc;fill-opacity:1;fill-rule:nonzero;stroke:none"
             id="path402"
             inkscape:connector-curvature="0" /></g><g
           id="g404"
           transform="translate(34.1662,29.4801)"><path
             d="m 0,0 c -1.132,0 -2.264,-0.432 -3.127,-1.296 -1.725,-1.725 -1.725,-4.523 10e-4,-6.249 l 4.583,-4.586 c 0.863,-0.863 1.995,-1.296 3.126,-1.296 1.132,0 2.264,0.433 3.127,1.296 1.726,1.727 1.725,4.525 0,6.25 L 3.126,-1.295 C 2.263,-0.432 1.131,0 0,0 m 0,-1 c 0.914,0 1.773,-0.355 2.419,-1.002 l 4.584,-4.586 c 1.332,-1.333 1.332,-3.502 0,-4.836 -0.646,-0.646 -1.505,-1.003 -2.42,-1.003 -0.914,0 -1.773,0.357 -2.419,1.003 l -4.583,4.586 c -1.333,1.333 -1.333,3.502 0,4.835 C -1.773,-1.355 -0.914,-1 0,-1"
             style="fill:#000000;fill-opacity:1;fill-rule:nonzero;stroke:none"
             id="path406"
             inkscape:connector-curvature="0" /></g><g
           id="g408"
           transform="translate(47.9528,30.4626)"><path
             d="m 0,0 c 0.251,-0.508 0.465,-0.898 0.727,-1.049 0.214,-0.143 0.554,-0.325 1.077,-0.408 0.482,-0.084 1.135,-0.208 1.539,-0.689 0.385,-0.479 0.42,-1.062 0.365,-1.561 L 3.609,-3.709 c -0.071,0.49 -0.27,0.97 -0.616,1.207 C 2.665,-2.247 2.237,-2.243 1.737,-2.254 1.486,-2.26 1.214,-2.273 0.903,-2.234 0.601,-2.187 0.24,-2.036 0.015,-1.752 -0.451,-1.174 -0.389,-0.473 -0.1,0.004 Z"
             style="fill:#000000;fill-opacity:1;fill-rule:nonzero;stroke:none"
             id="path410"
             inkscape:connector-curvature="0" /></g><g
           id="g412"
           transform="translate(44.7458,29.5534)"><path
             d="m 0,0 c -1.048,0 -2.033,0.408 -2.773,1.149 l -4.584,4.586 c -1.527,1.529 -1.528,4.015 0,5.542 0.741,0.742 1.726,1.15 2.774,1.15 1.047,0 2.032,-0.407 2.772,-1.149 L 2.772,6.692 C 4.3,5.165 4.3,2.678 2.773,1.149 2.032,0.408 1.047,0 0,0"
             style="fill:#dda5cb;fill-opacity:1;fill-rule:nonzero;stroke:none"
             id="path414"
             inkscape:connector-curvature="0" /></g><g
           id="g416"
           transform="translate(40.1618,42.4811)"><path
             d="m 0,0 c -1.132,0 -2.264,-0.433 -3.127,-1.296 -1.725,-1.726 -1.725,-4.524 10e-4,-6.25 l 4.583,-4.586 c 0.863,-0.863 1.995,-1.295 3.126,-1.295 1.132,0 2.264,0.432 3.127,1.296 1.725,1.726 1.725,4.524 0,6.25 L 3.126,-1.296 C 2.263,-0.432 1.131,0 0,0 m 0,-1 c 0.914,0 1.773,-0.356 2.419,-1.003 l 4.583,-4.585 c 1.333,-1.334 1.333,-3.503 0.001,-4.836 -0.646,-0.647 -1.505,-1.003 -2.42,-1.003 -0.914,0 -1.773,0.356 -2.419,1.002 l -4.583,4.586 C -3.752,-5.506 -3.752,-3.336 -2.42,-2.003 -1.773,-1.356 -0.914,-1 0,-1"
             style="fill:#000000;fill-opacity:1;fill-rule:nonzero;stroke:none"
             id="path418"
             inkscape:connector-curvature="0" /></g><g
           id="g420"
           transform="translate(17.5373,27.3376)"><path
             d="M 0,0 C -0.508,-0.25 -0.898,-0.465 -1.048,-0.727 -1.192,-0.941 -1.374,-1.282 -1.456,-1.805 -1.54,-2.286 -1.664,-2.939 -2.143,-3.344 -2.623,-3.729 -3.206,-3.765 -3.705,-3.71 l -0.002,0.1 c 0.491,0.071 0.97,0.27 1.207,0.616 0.254,0.329 0.258,0.756 0.247,1.257 -0.005,0.251 -0.019,0.522 0.02,0.833 0.047,0.302 0.197,0.663 0.481,0.888 0.577,0.467 1.279,0.406 1.756,0.117 z"
             style="fill:#000000;fill-opacity:1;fill-rule:nonzero;stroke:none"
             id="path422"
             inkscape:connector-curvature="0" /></g><g
           id="g424"
           transform="translate(20.548,26.6266)"><path
             d="m 0,0 c -1.047,0 -2.033,0.408 -2.773,1.149 -1.528,1.529 -1.528,4.014 -10e-4,5.542 l 4.583,4.587 c 0.741,0.742 1.726,1.15 2.773,1.15 1.048,0 2.033,-0.408 2.773,-1.15 C 8.883,9.75 8.883,7.264 7.356,5.735 L 2.773,1.149 C 2.033,0.408 1.048,0 0,0"
             style="fill:#e48a54;fill-opacity:1;fill-rule:nonzero;stroke:none"
             id="path426"
             inkscape:connector-curvature="0" /></g><g
           id="g428"
           transform="translate(25.1306,39.5544)"><path
             d="M 0,0 C -1.132,0 -2.264,-0.432 -3.127,-1.296 L -7.71,-5.882 c -1.725,-1.726 -1.725,-4.524 0.001,-6.25 0.863,-0.863 1.995,-1.296 3.126,-1.296 1.132,0 2.264,0.433 3.127,1.296 l 4.583,4.587 C 4.852,-5.819 4.852,-3.021 3.126,-1.296 2.263,-0.432 1.131,0 0,0 m 0,-1 c 0.914,0 1.773,-0.355 2.419,-1.002 1.332,-1.334 1.333,-3.503 0,-4.836 l -4.583,-4.587 c -0.646,-0.646 -1.505,-1.003 -2.419,-1.003 -0.914,0 -1.773,0.357 -2.419,1.003 -1.333,1.333 -1.333,3.503 0,4.836 l 4.582,4.586 C -1.773,-1.356 -0.914,-1 0,-1"
             style="fill:#000000;fill-opacity:1;fill-rule:nonzero;stroke:none"
             id="path430"
             inkscape:connector-curvature="0" /></g><g
           id="g432"
           transform="translate(61.8225,26.8981)"><path
             d="M 0,0 C 0.508,0.25 0.898,0.465 1.048,0.727 1.191,0.941 1.373,1.282 1.456,1.805 1.54,2.286 1.664,2.938 2.143,3.344 2.623,3.729 3.205,3.765 3.705,3.71 L 3.707,3.61 C 3.216,3.539 2.737,3.34 2.5,2.994 2.246,2.665 2.242,2.238 2.253,1.737 2.258,1.486 2.272,1.215 2.233,0.904 2.186,0.602 2.036,0.241 1.751,0.016 1.175,-0.451 0.472,-0.39 -0.004,-0.101 Z"
             style="fill:#000000;fill-opacity:1;fill-rule:nonzero;stroke:none"
             id="path434"
             inkscape:connector-curvature="0" /></g><g
           id="g436"
           transform="translate(54.2297,15.1803)"><path
             d="m 0,0 c -1.048,0 -2.033,0.408 -2.773,1.149 -1.528,1.528 -1.528,4.015 -10e-4,5.543 l 4.583,4.586 c 0.741,0.742 1.726,1.15 2.773,1.15 1.048,0 2.033,-0.408 2.773,-1.15 C 8.883,9.75 8.883,7.264 7.356,5.736 L 2.773,1.149 C 2.032,0.408 1.048,0 0,0"
             style="fill:#dda5cb;fill-opacity:1;fill-rule:nonzero;stroke:none"
             id="path438"
             inkscape:connector-curvature="0" /></g><g
           id="g440"
           transform="translate(58.8117,28.109)"><path
             d="m 0,0 c -1.132,0 -2.263,-0.433 -3.127,-1.296 l -4.582,-4.587 c -1.726,-1.725 -1.725,-4.523 0,-6.25 0.863,-0.863 1.995,-1.295 3.126,-1.295 1.132,0 2.264,0.432 3.127,1.296 l 4.583,4.586 c 1.725,1.727 1.725,4.525 0,6.25 C 2.264,-0.433 1.132,0 0,0 m 0,-1 c 0.914,0 1.773,-0.356 2.419,-1.003 1.333,-1.333 1.333,-3.503 10e-4,-4.836 l -4.583,-4.586 c -0.646,-0.646 -1.505,-1.003 -2.42,-1.003 -0.914,0 -1.773,0.356 -2.419,1.002 -1.332,1.334 -1.332,3.503 0,4.836 l 4.583,4.587 C -1.773,-1.356 -0.914,-1 0,-1"
             style="fill:#000000;fill-opacity:1;fill-rule:nonzero;stroke:none"
             id="path442"
             inkscape:connector-curvature="0" /></g><g
           id="g444"
           transform="translate(66.0637,46.0749)"><path
             d="m 0,0 c 0.508,0.251 0.898,0.466 1.048,0.727 0.144,0.215 0.325,0.555 0.408,1.078 0.084,0.482 0.208,1.134 0.687,1.54 0.48,0.384 1.062,0.421 1.562,0.366 l 0.002,-0.1 C 3.216,3.54 2.737,3.341 2.5,2.994 2.246,2.666 2.242,2.238 2.253,1.738 2.258,1.487 2.272,1.216 2.233,0.904 2.186,0.603 2.036,0.242 1.752,0.017 1.175,-0.451 0.472,-0.39 -0.004,-0.1 Z"
             style="fill:#000000;fill-opacity:1;fill-rule:nonzero;stroke:none"
             id="path446"
             inkscape:connector-curvature="0" /></g><g
           id="g448"
           transform="translate(58.4704,34.3581)"><path
             d="m 0,0 c -1.047,0 -2.032,0.408 -2.773,1.148 -1.527,1.529 -1.527,4.016 0,5.543 l 4.583,4.587 c 0.74,0.742 1.725,1.15 2.773,1.15 1.047,0 2.032,-0.408 2.773,-1.15 1.527,-1.528 1.527,-4.014 0,-5.543 L 2.773,1.149 C 2.033,0.408 1.048,0 0,0 Z"
             style="fill:#569bbc;fill-opacity:1;fill-rule:nonzero;stroke:none"
             id="path450"
             inkscape:connector-curvature="0" /></g><g
           id="g452"
           transform="translate(63.0534,47.2858)"><path
             d="M 0,0 C -1.132,0 -2.264,-0.432 -3.127,-1.296 L -7.71,-5.882 c -1.725,-1.726 -1.725,-4.524 0.001,-6.25 0.863,-0.863 1.994,-1.296 3.126,-1.296 1.132,0 2.264,0.433 3.127,1.296 l 4.583,4.587 C 4.852,-5.819 4.852,-3.021 3.126,-1.296 2.263,-0.432 1.131,0 0,0 m 0,-1 c 0.914,0 1.773,-0.356 2.419,-1.003 1.332,-1.333 1.333,-3.502 0,-4.835 l -4.583,-4.587 c -0.646,-0.646 -1.505,-1.003 -2.419,-1.003 -0.914,0 -1.773,0.357 -2.419,1.003 -1.333,1.333 -1.333,3.503 0,4.836 l 4.582,4.586 C -1.773,-1.356 -0.915,-1 0,-1"
             style="fill:#000000;fill-opacity:1;fill-rule:nonzero;stroke:none"
             id="path454"
             inkscape:connector-curvature="0" /></g><g
           id="g456"
           transform="translate(55.0695,56.0739)"><path
             d="m 0,0 c 0.508,0.251 0.898,0.466 1.048,0.727 0.144,0.215 0.326,0.555 0.408,1.079 0.084,0.481 0.208,1.133 0.687,1.539 0.48,0.384 1.062,0.421 1.562,0.366 l 0.002,-0.1 C 3.216,3.54 2.737,3.341 2.5,2.995 2.246,2.666 2.242,2.238 2.253,1.738 2.258,1.487 2.272,1.216 2.233,0.904 2.186,0.603 2.036,0.242 1.752,0.017 1.175,-0.45 0.473,-0.389 -0.004,-0.1 Z"
             style="fill:#000000;fill-opacity:1;fill-rule:nonzero;stroke:none"
             id="path458"
             inkscape:connector-curvature="0" /></g><g
           id="g460"
           transform="translate(47.4768,44.3571)"><path
             d="m 0,0 c -1.047,0 -2.033,0.408 -2.773,1.149 -1.528,1.529 -1.528,4.014 0,5.542 l 4.582,4.587 c 0.741,0.742 1.726,1.15 2.773,1.15 1.048,0 2.033,-0.408 2.773,-1.15 C 8.883,9.751 8.883,7.264 7.356,5.735 L 2.773,1.149 C 2.033,0.408 1.048,0 0,0"
             style="fill:#e48a54;fill-opacity:1;fill-rule:nonzero;stroke:none"
             id="path462"
             inkscape:connector-curvature="0" /></g><g
           id="g464"
           transform="translate(52.0593,57.2848)"><path
             d="M 0,0 C -1.132,0 -2.264,-0.432 -3.127,-1.296 L -7.71,-5.882 c -1.725,-1.726 -1.725,-4.523 0.001,-6.25 0.863,-0.863 1.995,-1.295 3.126,-1.295 1.132,0 2.264,0.432 3.127,1.296 l 4.583,4.586 c 1.725,1.727 1.725,4.524 -10e-4,6.25 C 2.263,-0.432 1.131,0 0,0 m 0,-1 c 0.914,0 1.773,-0.355 2.419,-1.002 1.332,-1.333 1.333,-3.503 0,-4.836 l -4.583,-4.587 c -0.646,-0.646 -1.505,-1.002 -2.419,-1.002 -0.914,0 -1.773,0.356 -2.419,1.002 -1.333,1.333 -1.333,3.503 0,4.836 l 4.582,4.586 C -1.773,-1.355 -0.914,-1 0,-1"
             style="fill:#000000;fill-opacity:1;fill-rule:nonzero;stroke:none"
             id="path466"
             inkscape:connector-curvature="0" /></g><g
           id="g468"
           transform="translate(28.3522,48.5836)"><path
             d="m 0,0 c -0.508,-0.251 -0.898,-0.465 -1.048,-0.727 -0.144,-0.214 -0.326,-0.555 -0.408,-1.078 -0.084,-0.481 -0.208,-1.134 -0.687,-1.54 -0.48,-0.384 -1.062,-0.42 -1.562,-0.366 l -0.002,0.101 c 0.491,0.07 0.97,0.269 1.207,0.616 0.254,0.328 0.258,0.756 0.247,1.256 -0.005,0.252 -0.019,0.523 0.02,0.834 0.047,0.302 0.197,0.663 0.481,0.888 0.577,0.467 1.279,0.406 1.756,0.116 z"
             style="fill:#000000;fill-opacity:1;fill-rule:nonzero;stroke:none"
             id="path470"
             inkscape:connector-curvature="0" /></g><g
           id="g472"
           transform="translate(31.3625,47.8727)"><path
             d="M 0,0 C -1.048,0 -2.032,0.408 -2.772,1.148 -4.3,2.677 -4.3,5.163 -2.773,6.691 l 4.583,4.586 c 0.74,0.742 1.726,1.151 2.773,1.151 1.048,0 2.033,-0.408 2.773,-1.15 1.527,-1.528 1.527,-4.014 0,-5.543 L 2.774,1.149 C 2.033,0.408 1.048,0 0,0"
             style="fill:#569bbc;fill-opacity:1;fill-rule:nonzero;stroke:none"
             id="path474"
             inkscape:connector-curvature="0" /></g><g
           id="g476"
           transform="translate(35.9455,60.8004)"><path
             d="M 0,0 C -1.132,0 -2.264,-0.432 -3.127,-1.296 L -7.71,-5.882 c -1.725,-1.726 -1.725,-4.524 0.001,-6.25 0.863,-0.864 1.995,-1.296 3.126,-1.296 1.132,0 2.264,0.433 3.127,1.296 l 4.583,4.587 C 4.852,-5.819 4.852,-3.021 3.126,-1.296 2.263,-0.432 1.131,0 0,0 m 0,-1 c 0.914,0 1.773,-0.356 2.419,-1.003 1.333,-1.333 1.333,-3.502 0,-4.836 l -4.582,-4.586 c -0.647,-0.646 -1.506,-1.003 -2.42,-1.003 -0.914,0 -1.773,0.357 -2.419,1.003 -1.332,1.333 -1.333,3.502 0,4.836 l 4.583,4.586 C -1.773,-1.356 -0.914,-1 0,-1"
             style="fill:#000000;fill-opacity:1;fill-rule:nonzero;stroke:none"
             id="path478"
             inkscape:connector-curvature="0" /></g></g></g><g
       id="g480"><g
         id="g482"
         clip-path="url(#clipPath486)"><g
           id="g488"
           transform="translate(112.2741,71.693)"><path
             d="M 0,0 C 6.443,6.35 15.197,3.705 25.553,-5.257"
             style="fill:none;stroke:#000000;stroke-width:0.5;stroke-linecap:butt;stroke-linejoin:miter;stroke-miterlimit:10;stroke-dasharray:none;stroke-opacity:1"
             id="path490"
             inkscape:connector-curvature="0" /></g><g
           id="g492"
           transform="translate(135.2199,65.7926)"><path
             d="M 0,0 7.462,-3.896 2.948,3.209 Z"
             style="fill:#000000;fill-opacity:1;fill-rule:nonzero;stroke:none"
             id="path494"
             inkscape:connector-curvature="0" /></g><g
           id="g496"
           transform="translate(108.9416,57.3952)"><path
             d="M 0,0 C 0.036,-0.565 0.083,-1.009 0.267,-1.248 0.41,-1.463 0.653,-1.762 1.104,-2.039 1.517,-2.302 2.072,-2.668 2.261,-3.267 2.431,-3.857 2.239,-4.408 1.997,-4.849 l -0.093,0.037 c 0.123,0.48 0.124,0.999 -0.104,1.352 -0.205,0.36 -0.598,0.529 -1.064,0.711 -0.234,0.092 -0.49,0.184 -0.762,0.339 -0.261,0.161 -0.536,0.437 -0.634,0.787 -0.209,0.713 0.118,1.337 0.569,1.665 z"
             style="fill:#000000;fill-opacity:1;fill-rule:nonzero;stroke:none"
             id="path498"
             inkscape:connector-curvature="0" /></g><g
           id="g500"
           transform="translate(107.1398,57.4879)"><path
             d="m 0,0 c -1.596,0 -3.02,0.954 -3.626,2.43 l -2.467,5.996 c -0.823,1.997 0.134,4.293 2.132,5.117 0.478,0.196 0.98,0.297 1.492,0.297 1.595,0 3.019,-0.954 3.627,-2.431 L 3.625,5.413 C 4.447,3.415 3.49,1.12 1.493,0.297 1.015,0.101 0.513,0 0,0 Z"
             style="fill:#f4777f;fill-opacity:1;fill-rule:nonzero;stroke:none"
             id="path502"
             inkscape:connector-curvature="0" /></g><g
           id="g504"
           transform="translate(104.6706,71.8268)"><path
             d="m 0,0 c -0.561,0 -1.132,-0.107 -1.683,-0.334 -2.256,-0.931 -3.332,-3.513 -2.403,-5.77 L -1.62,-12.1 c 0.703,-1.707 2.351,-2.739 4.09,-2.739 0.561,0 1.132,0.108 1.683,0.334 v 0.001 c 2.256,0.93 3.332,3.512 2.404,5.769 L 4.09,-2.739 C 3.387,-1.032 1.738,0 0,0 m 0,-1 c 1.393,0 2.635,-0.832 3.165,-2.12 l 2.467,-5.996 c 0.717,-1.743 -0.117,-3.745 -1.86,-4.464 -0.418,-0.172 -0.855,-0.259 -1.302,-0.259 -1.392,0 -2.635,0.832 -3.165,2.12 l -2.467,5.996 c -0.717,1.744 0.118,3.745 1.86,4.464 C -0.884,-1.087 -0.446,-1 0,-1"
             style="fill:#000000;fill-opacity:1;fill-rule:nonzero;stroke:none"
             id="path506"
             inkscape:connector-curvature="0" /></g><g
           id="g508"
           transform="translate(86.5139,56.279)"><path
             d="m 0,0 c -0.451,-0.344 -0.793,-0.629 -0.891,-0.914 -0.1,-0.238 -0.213,-0.607 -0.193,-1.136 0.009,-0.488 0.012,-1.153 -0.381,-1.642 -0.398,-0.469 -0.963,-0.616 -1.464,-0.658 l -0.021,0.098 c 0.468,0.164 0.901,0.45 1.068,0.836 0.187,0.371 0.109,0.791 0.002,1.28 -0.053,0.245 -0.119,0.509 -0.14,0.822 -0.011,0.306 0.067,0.688 0.303,0.964 0.478,0.568 1.178,0.642 1.702,0.449 z"
             style="fill:#000000;fill-opacity:1;fill-rule:nonzero;stroke:none"
             id="path510"
             inkscape:connector-curvature="0" /></g><g
           id="g512"
           transform="translate(88.8513,56.0836)"><path
             d="m 0,0 c -0.779,0 -1.535,0.23 -2.184,0.668 -0.869,0.585 -1.459,1.474 -1.659,2.502 -0.201,1.027 0.011,2.072 0.596,2.941 l 3.623,5.377 c 0.73,1.083 1.948,1.73 3.256,1.73 0.78,0 1.535,-0.231 2.185,-0.668 C 6.686,11.965 7.275,11.076 7.476,10.048 7.677,9.021 7.465,7.976 6.879,7.106 L 3.256,1.729 C 2.526,0.646 1.309,0 0,0 Z"
             style="fill:#665391;fill-opacity:1;fill-rule:nonzero;stroke:none"
             id="path514"
             inkscape:connector-curvature="0" /></g><g
           id="g516"
           transform="translate(92.4836,69.8014)"><path
             d="m 0,0 c -1.421,0 -2.816,-0.684 -3.67,-1.95 l -3.623,-5.377 c -1.365,-2.026 -0.829,-4.774 1.197,-6.138 0.758,-0.51 1.616,-0.754 2.465,-0.754 1.421,0 2.816,0.685 3.67,1.951 l 3.623,5.377 C 5.026,-4.865 4.49,-2.117 2.464,-0.753 1.707,-0.244 0.849,0 0,0 m 0,-1 c 0.68,0 1.339,-0.201 1.906,-0.583 0.758,-0.511 1.272,-1.285 1.447,-2.183 0.175,-0.897 -0.01,-1.808 -0.52,-2.566 l -3.624,-5.377 c -0.637,-0.945 -1.699,-1.51 -2.84,-1.51 -0.681,0 -1.339,0.202 -1.906,0.584 -0.758,0.51 -1.273,1.285 -1.448,2.183 -0.175,0.896 0.01,1.808 0.521,2.566 l 3.623,5.377 C -2.204,-1.563 -1.142,-1 0,-1"
             style="fill:#000000;fill-opacity:1;fill-rule:nonzero;stroke:none"
             id="path518"
             inkscape:connector-curvature="0" /></g><g
           id="g520"
           transform="translate(91.6696,85.2458)"><path
             d="m 0,0 c -0.083,0.561 -0.167,0.998 -0.37,1.222 -0.161,0.202 -0.429,0.479 -0.901,0.717 -0.433,0.228 -1.017,0.546 -1.254,1.127 -0.22,0.576 -0.075,1.14 0.13,1.599 L -2.299,4.637 C -2.382,4.147 -2.339,3.631 -2.083,3.298 -1.848,2.955 -1.443,2.82 -0.963,2.678 -0.722,2.606 -0.459,2.536 -0.175,2.404 0.098,2.266 0.395,2.013 0.522,1.673 0.789,0.979 0.516,0.331 0.094,-0.034 Z"
             style="fill:#000000;fill-opacity:1;fill-rule:nonzero;stroke:none"
             id="path522"
             inkscape:connector-curvature="0" /></g><g
           id="g524"
           transform="translate(96.7639,71.7057)"><path
             d="m 0,0 c -1.479,0 -2.818,0.817 -3.493,2.133 l -2.959,5.768 c -0.985,1.922 -0.224,4.29 1.698,5.278 0.56,0.287 1.161,0.433 1.787,0.433 1.479,0 2.818,-0.817 3.492,-2.133 L 3.484,5.711 C 4.47,3.789 3.709,1.422 1.787,0.434 1.227,0.146 0.625,0 0,0 Z"
             style="fill:#f7f48b;fill-opacity:1;fill-rule:nonzero;stroke:none"
             id="path526"
             inkscape:connector-curvature="0" /></g><g
           id="g528"
           transform="translate(93.7971,85.818)"><path
             d="m 0,0 c -0.68,0 -1.37,-0.157 -2.016,-0.489 -2.171,-1.115 -3.027,-3.779 -1.914,-5.95 l 2.959,-5.769 c 0.784,-1.526 2.332,-2.404 3.937,-2.404 0.68,0 1.37,0.157 2.016,0.489 2.171,1.115 3.028,3.778 1.914,5.95 L 3.937,-2.404 C 3.154,-0.878 1.605,0 0,0 m 0,-1 c 1.291,0 2.459,-0.713 3.047,-1.86 l 2.959,-5.77 c 0.861,-1.677 0.196,-3.742 -1.481,-4.603 -0.489,-0.251 -1.013,-0.379 -1.559,-0.379 -1.291,0 -2.458,0.713 -3.047,1.86 l -2.959,5.77 C -3.9,-4.306 -3.236,-2.24 -1.559,-1.379 -1.07,-1.128 -0.545,-1 0,-1"
             style="fill:#000000;fill-opacity:1;fill-rule:nonzero;stroke:none"
             id="path530"
             inkscape:connector-curvature="0" /></g></g></g><g
       id="g532"><g
         id="g534"
         clip-path="url(#clipPath538)"><g
           id="g540"><g
             id="g542"><path
               d="M 152.355,59.994 C 138.832,59.897 127.949,48.85 128.045,35.32 v 0 c 0.096,-13.53 11.136,-24.421 24.659,-24.326 v 0 c 13.522,0.098 24.407,11.144 24.311,24.676 v 0 c -0.097,13.472 -11.039,24.326 -24.482,24.325 v 0 c -0.059,0 -0.12,-10e-4 -0.178,-10e-4"
               style="fill:url(#radialGradient554);stroke:none"
               id="path556"
               inkscape:connector-curvature="0" /></g></g></g></g><g
       id="g558"><g
         id="g560"
         clip-path="url(#clipPath564)"><g
           id="g566"
           transform="translate(150.3649,16.8336)"><path
             d="m 0,0 c 0.25,-0.508 0.465,-0.898 0.726,-1.049 0.215,-0.144 0.555,-0.326 1.078,-0.408 0.481,-0.084 1.134,-0.209 1.539,-0.689 0.385,-0.48 0.42,-1.062 0.365,-1.561 l -0.1,-0.002 c -0.071,0.49 -0.27,0.97 -0.616,1.207 C 2.664,-2.247 2.237,-2.243 1.736,-2.254 1.485,-2.26 1.214,-2.273 0.903,-2.234 0.601,-2.187 0.24,-2.037 0.015,-1.752 -0.452,-1.175 -0.39,-0.473 -0.1,0.004 Z"
             style="fill:#000000;fill-opacity:1;fill-rule:nonzero;stroke:none"
             id="path568"
             inkscape:connector-curvature="0" /></g><g
           id="g570"
           transform="translate(147.1569,15.9245)"><path
             d="m 0,0 c -1.047,0 -2.033,0.408 -2.773,1.149 l -4.584,4.586 c -1.527,1.529 -1.527,4.014 0,5.542 0.741,0.742 1.726,1.15 2.774,1.15 1.047,0 2.032,-0.407 2.772,-1.149 L 2.773,6.692 C 4.3,5.165 4.3,2.678 2.773,1.149 2.032,0.408 1.048,0 0,0"
             style="fill:#569bbc;fill-opacity:1;fill-rule:nonzero;stroke:none"
             id="path572"
             inkscape:connector-curvature="0" /></g><g
           id="g574"
           transform="translate(142.5734,28.8522)"><path
             d="m 0,0 c -1.132,0 -2.264,-0.433 -3.127,-1.296 -1.725,-1.726 -1.725,-4.524 10e-4,-6.25 l 4.583,-4.586 c 0.863,-0.863 1.995,-1.295 3.126,-1.295 1.132,0 2.264,0.432 3.127,1.296 1.725,1.726 1.725,4.524 0,6.249 L 3.126,-1.296 C 2.263,-0.433 1.131,0 0,0 m 0,-1 c 0.914,0 1.773,-0.356 2.419,-1.003 l 4.583,-4.586 c 1.333,-1.333 1.333,-3.502 0.001,-4.836 -0.646,-0.646 -1.505,-1.002 -2.42,-1.002 -0.914,0 -1.773,0.356 -2.419,1.002 l -4.583,4.586 C -3.752,-5.506 -3.752,-3.337 -2.42,-2.003 -1.773,-1.356 -0.914,-1 0,-1"
             style="fill:#000000;fill-opacity:1;fill-rule:nonzero;stroke:none"
             id="path576"
             inkscape:connector-curvature="0" /></g><g
           id="g578"
           transform="translate(125.944,26.7096)"><path
             d="m 0,0 c -0.508,-0.251 -0.898,-0.466 -1.048,-0.727 -0.143,-0.215 -0.325,-0.555 -0.408,-1.079 -0.083,-0.481 -0.208,-1.133 -0.687,-1.539 -0.48,-0.385 -1.062,-0.421 -1.562,-0.366 l -0.002,0.1 c 0.491,0.071 0.97,0.27 1.207,0.616 0.254,0.329 0.259,0.757 0.248,1.257 -0.006,0.251 -0.019,0.522 0.019,0.833 0.048,0.302 0.197,0.663 0.482,0.888 0.577,0.467 1.279,0.406 1.755,0.117 z"
             style="fill:#000000;fill-opacity:1;fill-rule:nonzero;stroke:none"
             id="path580"
             inkscape:connector-curvature="0" /></g><g
           id="g582"
           transform="translate(170.2297,26.2692)"><path
             d="m 0,0 c 0.508,0.251 0.898,0.465 1.048,0.727 0.143,0.214 0.325,0.555 0.408,1.078 0.084,0.481 0.208,1.134 0.687,1.54 0.48,0.384 1.062,0.42 1.562,0.366 L 3.707,3.61 C 3.216,3.54 2.737,3.341 2.5,2.994 2.246,2.666 2.241,2.238 2.253,1.738 2.258,1.486 2.271,1.215 2.233,0.904 2.186,0.602 2.036,0.241 1.751,0.016 1.175,-0.451 0.472,-0.39 -0.004,-0.1 Z"
             style="fill:#000000;fill-opacity:1;fill-rule:nonzero;stroke:none"
             id="path584"
             inkscape:connector-curvature="0" /></g><g
           id="g586"
           transform="translate(162.6359,14.5524)"><path
             d="m 0,0 c -1.047,0 -2.032,0.408 -2.773,1.148 -1.527,1.529 -1.527,4.016 0,5.543 l 4.583,4.587 c 0.74,0.742 1.725,1.15 2.773,1.15 1.047,0 2.032,-0.408 2.773,-1.15 1.527,-1.528 1.527,-4.014 0,-5.543 L 2.773,1.149 C 2.033,0.408 1.048,0 0,0 Z"
             style="fill:#dda5cb;fill-opacity:1;fill-rule:nonzero;stroke:none"
             id="path588"
             inkscape:connector-curvature="0" /></g><g
           id="g590"
           transform="translate(167.2189,27.4801)"><path
             d="m 0,0 c -1.132,0 -2.264,-0.433 -3.127,-1.296 l -4.582,-4.587 c -1.726,-1.725 -1.726,-4.523 0,-6.249 0.863,-0.864 1.995,-1.296 3.126,-1.296 1.132,0 2.264,0.432 3.127,1.296 l 4.583,4.586 c 1.725,1.727 1.725,4.525 -10e-4,6.25 C 2.263,-0.432 1.132,0 0,0 m 0,-1 c 0.914,0 1.773,-0.356 2.419,-1.003 1.333,-1.333 1.333,-3.502 10e-4,-4.836 l -4.583,-4.586 c -0.646,-0.646 -1.505,-1.003 -2.42,-1.003 -0.914,0 -1.773,0.357 -2.419,1.003 -1.332,1.333 -1.332,3.502 0,4.836 l 4.583,4.586 C -1.773,-1.356 -0.914,-1 0,-1"
             style="fill:#000000;fill-opacity:1;fill-rule:nonzero;stroke:none"
             id="path592"
             inkscape:connector-curvature="0" /></g><g
           id="g594"
           transform="translate(163.4768,55.446)"><path
             d="M 0,0 C 0.508,0.25 0.898,0.465 1.048,0.727 1.191,0.941 1.373,1.282 1.456,1.805 1.54,2.286 1.664,2.938 2.143,3.344 2.623,3.729 3.205,3.765 3.705,3.71 L 3.707,3.61 C 3.216,3.539 2.737,3.34 2.5,2.994 2.246,2.665 2.242,2.238 2.253,1.737 2.258,1.486 2.272,1.215 2.233,0.904 2.186,0.602 2.036,0.241 1.752,0.016 1.175,-0.451 0.472,-0.39 -0.004,-0.101 Z"
             style="fill:#000000;fill-opacity:1;fill-rule:nonzero;stroke:none"
             id="path596"
             inkscape:connector-curvature="0" /></g><g
           id="g598"
           transform="translate(155.8835,43.7282)"><path
             d="m 0,0 c -1.048,0 -2.032,0.408 -2.773,1.149 -1.527,1.529 -1.527,4.015 0,5.543 l 4.582,4.586 c 0.741,0.742 1.726,1.15 2.774,1.15 1.047,0 2.032,-0.407 2.772,-1.149 C 8.883,9.751 8.883,7.265 7.356,5.736 L 2.773,1.15 C 2.033,0.409 1.048,0 0,0"
             style="fill:#e48a54;fill-opacity:1;fill-rule:nonzero;stroke:none"
             id="path600"
             inkscape:connector-curvature="0" /></g><g
           id="g602"
           transform="translate(160.466,56.6559)"><path
             d="m 0,0 c -1.132,0 -2.263,-0.432 -3.127,-1.296 l -4.582,-4.586 c -1.726,-1.726 -1.726,-4.523 0,-6.25 0.863,-0.863 1.995,-1.295 3.126,-1.295 1.132,0 2.264,0.432 3.127,1.296 l 4.583,4.586 c 1.725,1.727 1.725,4.524 0,6.25 C 2.264,-0.432 1.132,0 0,0 m 0,-1 c 0.914,0 1.773,-0.355 2.419,-1.002 1.333,-1.333 1.333,-3.503 10e-4,-4.836 l -4.583,-4.586 c -0.646,-0.646 -1.505,-1.003 -2.42,-1.003 -0.914,0 -1.773,0.356 -2.419,1.002 -1.332,1.333 -1.332,3.503 0,4.836 l 4.583,4.587 C -1.773,-1.355 -0.914,-1 0,-1"
             style="fill:#000000;fill-opacity:1;fill-rule:nonzero;stroke:none"
             id="path604"
             inkscape:connector-curvature="0" /></g></g></g><g
       id="g606"><g
         id="g608"
         clip-path="url(#clipPath612)"><g
           id="g614"
           transform="translate(77.6008,36.1344)"><path
             d="M 0,0 H 36.12"
             style="fill:none;stroke:#000000;stroke-width:1;stroke-linecap:butt;stroke-linejoin:miter;stroke-miterlimit:10;stroke-dasharray:none;stroke-opacity:1"
             id="path616"
             inkscape:connector-curvature="0" /></g><g
           id="g618"
           transform="translate(111.7395,33.2292)"><path
             d="M 0,0 10.841,2.905 0,5.811 Z"
             style="fill:#000000;fill-opacity:1;fill-rule:nonzero;stroke:none"
             id="path620"
             inkscape:connector-curvature="0" /></g></g></g><g
       id="g622"><g
         id="g624"
         clip-path="url(#clipPath628)"><g
           id="g630"><g
             id="g632"><path
               d="M 44.628,143.268 C 31.106,143.171 20.222,132.124 20.318,118.593 v 0 c 0.098,-13.53 11.137,-24.421 24.66,-24.323 v 0 c 13.522,0.096 24.407,11.143 24.309,24.673 v 0 c -0.095,13.472 -11.04,24.326 -24.482,24.326 v 0 c -0.059,0 -0.118,0 -0.177,-0.001"
               style="fill:url(#radialGradient644);stroke:none"
               id="path646"
               inkscape:connector-curvature="0" /></g></g><g
           id="g648"
           transform="translate(42.6384,100.1071)"><path
             d="m 0,0 c 0.251,-0.508 0.465,-0.898 0.727,-1.049 0.214,-0.143 0.554,-0.325 1.077,-0.408 0.482,-0.083 1.134,-0.208 1.539,-0.688 0.385,-0.48 0.42,-1.062 0.365,-1.562 l -0.1,-0.002 c -0.07,0.49 -0.269,0.97 -0.615,1.207 -0.328,0.255 -0.756,0.26 -1.256,0.248 -0.251,-0.005 -0.523,-0.018 -0.834,0.02 -0.302,0.047 -0.663,0.198 -0.888,0.482 -0.466,0.578 -0.404,1.279 -0.115,1.756 z"
             style="fill:#000000;fill-opacity:1;fill-rule:nonzero;stroke:none"
             id="path650"
             inkscape:connector-curvature="0" /></g><g
           id="g652"
           transform="translate(39.4309,99.1989)"><path
             d="m 0,0 c -1.048,0 -2.033,0.408 -2.773,1.149 l -4.584,4.585 c -1.527,1.529 -1.527,4.015 0,5.543 0.74,0.742 1.725,1.15 2.773,1.15 1.047,0 2.032,-0.408 2.773,-1.15 L 2.772,6.692 C 4.299,5.164 4.3,2.678 2.773,1.149 2.032,0.408 1.047,0 0,0"
             style="fill:#569bbc;fill-opacity:1;fill-rule:nonzero;stroke:none"
             id="path654"
             inkscape:connector-curvature="0" /></g><g
           id="g656"
           transform="translate(34.8474,112.1256)"><path
             d="m 0,0 c -1.132,0 -2.264,-0.432 -3.127,-1.296 -1.725,-1.726 -1.725,-4.523 0,-6.25 l 4.584,-4.585 c 0.863,-0.864 1.995,-1.296 3.126,-1.296 1.132,0 2.264,0.432 3.127,1.296 1.725,1.727 1.725,4.524 0,6.25 L 3.126,-1.296 C 2.263,-0.432 1.131,0 0,0 m 0,-1 c 0.914,0 1.773,-0.356 2.419,-1.002 l 4.583,-4.586 c 1.333,-1.333 1.333,-3.503 0.001,-4.836 -0.647,-0.646 -1.505,-1.003 -2.42,-1.003 -0.914,0 -1.773,0.357 -2.419,1.003 l -4.583,4.585 C -3.752,-5.506 -3.752,-3.336 -2.42,-2.003 -1.773,-1.356 -0.915,-1 0,-1"
             style="fill:#000000;fill-opacity:1;fill-rule:nonzero;stroke:none"
             id="path658"
             inkscape:connector-curvature="0" /></g><g
           id="g660"
           transform="translate(48.634,113.1081)"><path
             d="m 0,0 c 0.251,-0.508 0.465,-0.898 0.726,-1.049 0.215,-0.144 0.555,-0.326 1.078,-0.408 0.482,-0.084 1.134,-0.209 1.539,-0.689 0.385,-0.48 0.42,-1.062 0.365,-1.562 L 3.608,-3.71 C 3.538,-3.219 3.339,-2.739 2.993,-2.502 2.665,-2.247 2.237,-2.243 1.737,-2.254 1.486,-2.26 1.214,-2.273 0.903,-2.234 0.601,-2.187 0.24,-2.037 0.015,-1.752 -0.451,-1.175 -0.39,-0.473 -0.1,0.004 Z"
             style="fill:#000000;fill-opacity:1;fill-rule:nonzero;stroke:none"
             id="path662"
             inkscape:connector-curvature="0" /></g><g
           id="g664"
           transform="translate(45.426,112.1989)"><path
             d="m 0,0 c -1.048,0 -2.032,0.408 -2.773,1.149 l -4.583,4.586 c -1.528,1.529 -1.528,4.015 -0.001,5.542 0.741,0.742 1.726,1.151 2.774,1.151 1.047,0 2.032,-0.408 2.772,-1.15 L 2.773,6.692 C 4.3,5.164 4.301,2.678 2.773,1.15 2.033,0.409 1.048,0 0,0"
             style="fill:#dda5cb;fill-opacity:1;fill-rule:nonzero;stroke:none"
             id="path666"
             inkscape:connector-curvature="0" /></g><g
           id="g668"
           transform="translate(40.8425,125.1256)"><path
             d="m 0,0 c -1.132,0 -2.264,-0.432 -3.127,-1.296 -1.725,-1.725 -1.725,-4.523 10e-4,-6.249 l 4.583,-4.586 c 0.863,-0.863 1.995,-1.296 3.126,-1.296 1.132,0 2.264,0.433 3.127,1.296 1.726,1.727 1.726,4.525 0,6.25 L 3.126,-1.295 C 2.264,-0.432 1.132,0 0,0 m 0,-1 c 0.914,0 1.773,-0.355 2.419,-1.002 l 4.584,-4.586 c 1.332,-1.333 1.332,-3.502 0,-4.836 -0.646,-0.646 -1.505,-1.003 -2.42,-1.003 -0.914,0 -1.772,0.357 -2.418,1.003 l -4.584,4.586 c -1.332,1.333 -1.333,3.502 0,4.836 C -1.773,-1.355 -0.914,-1 0,-1"
             style="fill:#000000;fill-opacity:1;fill-rule:nonzero;stroke:none"
             id="path670"
             inkscape:connector-curvature="0" /></g><g
           id="g672"
           transform="translate(18.218,109.9831)"><path
             d="m 0,0 c -0.508,-0.251 -0.898,-0.465 -1.048,-0.727 -0.143,-0.214 -0.325,-0.555 -0.408,-1.078 -0.084,-0.482 -0.208,-1.134 -0.687,-1.54 -0.48,-0.384 -1.062,-0.421 -1.562,-0.366 l -0.002,0.101 c 0.491,0.07 0.97,0.269 1.207,0.616 0.254,0.328 0.258,0.756 0.247,1.256 -0.005,0.251 -0.019,0.523 0.02,0.834 0.047,0.301 0.197,0.662 0.482,0.887 0.576,0.468 1.279,0.407 1.755,0.117 z"
             style="fill:#000000;fill-opacity:1;fill-rule:nonzero;stroke:none"
             id="path674"
             inkscape:connector-curvature="0" /></g><g
           id="g676"
           transform="translate(21.2287,109.2721)"><path
             d="m 0,0 c -1.048,0 -2.033,0.408 -2.773,1.149 -1.528,1.529 -1.528,4.014 -10e-4,5.542 l 4.583,4.587 c 0.741,0.742 1.726,1.15 2.774,1.15 1.047,0 2.032,-0.408 2.772,-1.15 C 8.883,9.75 8.883,7.264 7.356,5.735 L 2.773,1.149 C 2.032,0.408 1.048,0 0,0"
             style="fill:#e48a54;fill-opacity:1;fill-rule:nonzero;stroke:none"
             id="path678"
             inkscape:connector-curvature="0" /></g><g
           id="g680"
           transform="translate(25.8112,122.1999)"><path
             d="m 0,0 c -1.132,0 -2.264,-0.433 -3.127,-1.296 l -4.582,-4.587 c -1.726,-1.725 -1.726,-4.523 0,-6.249 0.863,-0.864 1.995,-1.296 3.126,-1.296 1.132,0 2.264,0.432 3.127,1.296 l 4.583,4.586 c 1.725,1.727 1.725,4.525 -10e-4,6.25 C 2.263,-0.432 1.132,0 0,0 m 0,-1 c 0.914,0 1.773,-0.356 2.419,-1.003 1.333,-1.333 1.333,-3.502 10e-4,-4.836 l -4.583,-4.586 c -0.646,-0.646 -1.505,-1.003 -2.42,-1.003 -0.914,0 -1.773,0.357 -2.419,1.003 -1.332,1.333 -1.332,3.502 0,4.836 l 4.583,4.586 C -1.773,-1.356 -0.914,-1 0,-1"
             style="fill:#000000;fill-opacity:1;fill-rule:nonzero;stroke:none"
             id="path682"
             inkscape:connector-curvature="0" /></g><g
           id="g684"
           transform="translate(62.5031,109.5426)"><path
             d="m 0,0 c 0.508,0.251 0.898,0.466 1.048,0.727 0.144,0.215 0.326,0.555 0.408,1.079 0.084,0.481 0.208,1.133 0.687,1.539 0.48,0.384 1.063,0.421 1.562,0.366 l 0.002,-0.1 C 3.216,3.54 2.737,3.341 2.5,2.994 2.246,2.666 2.242,2.238 2.253,1.738 2.258,1.487 2.272,1.216 2.233,0.904 2.186,0.603 2.036,0.242 1.752,0.017 1.175,-0.451 0.473,-0.389 -0.004,-0.1 Z"
             style="fill:#000000;fill-opacity:1;fill-rule:nonzero;stroke:none"
             id="path686"
             inkscape:connector-curvature="0" /></g><g
           id="g688"
           transform="translate(54.9099,97.8258)"><path
             d="m 0,0 c -1.048,0 -2.032,0.408 -2.773,1.149 -1.527,1.529 -1.527,4.015 0,5.543 l 4.583,4.586 c 0.74,0.742 1.726,1.15 2.773,1.15 1.048,0 2.033,-0.407 2.773,-1.149 1.527,-1.528 1.527,-4.014 0,-5.543 L 2.773,1.15 C 2.033,0.409 1.048,0 0,0"
             style="fill:#dda5cb;fill-opacity:1;fill-rule:nonzero;stroke:none"
             id="path690"
             inkscape:connector-curvature="0" /></g><g
           id="g692"
           transform="translate(59.4929,110.7536)"><path
             d="M 0,0 C -1.132,0 -2.264,-0.432 -3.127,-1.296 L -7.71,-5.882 c -1.725,-1.726 -1.725,-4.523 0.001,-6.25 0.863,-0.863 1.995,-1.295 3.126,-1.295 1.132,0 2.264,0.432 3.127,1.296 l 4.583,4.586 c 1.725,1.727 1.725,4.524 -10e-4,6.25 C 2.263,-0.432 1.132,0 0,0 m 0,-1 c 0.914,0 1.773,-0.355 2.419,-1.002 1.333,-1.333 1.333,-3.503 0,-4.836 l -4.582,-4.587 c -0.647,-0.646 -1.505,-1.002 -2.42,-1.002 -0.914,0 -1.773,0.356 -2.419,1.002 -1.332,1.333 -1.333,3.503 0,4.836 l 4.583,4.586 C -1.773,-1.355 -0.914,-1 0,-1"
             style="fill:#000000;fill-opacity:1;fill-rule:nonzero;stroke:none"
             id="path694"
             inkscape:connector-curvature="0" /></g><g
           id="g696"
           transform="translate(66.7448,128.7204)"><path
             d="m 0,0 c 0.508,0.251 0.898,0.465 1.048,0.727 0.143,0.214 0.325,0.555 0.408,1.078 0.083,0.481 0.208,1.134 0.687,1.54 0.48,0.384 1.062,0.42 1.562,0.366 L 3.707,3.61 C 3.216,3.539 2.737,3.341 2.5,2.994 2.246,2.666 2.241,2.238 2.252,1.737 2.258,1.486 2.271,1.215 2.233,0.904 2.185,0.602 2.036,0.241 1.751,0.016 1.174,-0.451 0.472,-0.39 -0.004,-0.1 Z"
             style="fill:#000000;fill-opacity:1;fill-rule:nonzero;stroke:none"
             id="path698"
             inkscape:connector-curvature="0" /></g><g
           id="g700"
           transform="translate(59.1511,117.0036)"><path
             d="m 0,0 c -1.047,0 -2.032,0.408 -2.773,1.149 -1.527,1.529 -1.528,4.015 0,5.542 l 4.583,4.587 c 0.74,0.742 1.725,1.15 2.773,1.15 1.047,0 2.032,-0.408 2.773,-1.15 1.527,-1.528 1.527,-4.014 0,-5.543 L 2.773,1.149 C 2.033,0.408 1.048,0 0,0"
             style="fill:#569bbc;fill-opacity:1;fill-rule:nonzero;stroke:none"
             id="path702"
             inkscape:connector-curvature="0" /></g><g
           id="g704"
           transform="translate(63.7341,129.9313)"><path
             d="m 0,0 c -1.132,0 -2.264,-0.433 -3.127,-1.296 l -4.582,-4.587 c -1.726,-1.725 -1.726,-4.523 0,-6.249 0.863,-0.864 1.995,-1.296 3.126,-1.296 1.132,0 2.264,0.432 3.127,1.296 l 4.583,4.586 c 1.725,1.727 1.725,4.525 -10e-4,6.25 C 2.263,-0.433 1.132,0 0,0 m 0,-1 c 0.914,0 1.773,-0.356 2.419,-1.003 1.333,-1.333 1.333,-3.502 10e-4,-4.836 l -4.583,-4.586 c -0.646,-0.646 -1.505,-1.003 -2.42,-1.003 -0.914,0 -1.773,0.357 -2.419,1.003 -1.332,1.333 -1.333,3.502 0,4.836 l 4.583,4.586 C -1.773,-1.356 -0.914,-1 0,-1"
             style="fill:#000000;fill-opacity:1;fill-rule:nonzero;stroke:none"
             id="path706"
             inkscape:connector-curvature="0" /></g><g
           id="g708"
           transform="translate(55.7507,138.7194)"><path
             d="m 0,0 c 0.508,0.251 0.898,0.466 1.048,0.727 0.143,0.214 0.325,0.555 0.408,1.078 0.084,0.482 0.208,1.134 0.687,1.54 0.48,0.384 1.062,0.421 1.562,0.366 L 3.707,3.61 C 3.216,3.54 2.737,3.341 2.5,2.994 2.246,2.666 2.241,2.238 2.252,1.738 2.258,1.487 2.271,1.215 2.233,0.904 2.186,0.603 2.036,0.242 1.751,0.017 1.175,-0.451 0.472,-0.39 -0.004,-0.1 Z"
             style="fill:#000000;fill-opacity:1;fill-rule:nonzero;stroke:none"
             id="path710"
             inkscape:connector-curvature="0" /></g><g
           id="g712"
           transform="translate(48.1574,127.0026)"><path
             d="m 0,0 c -1.048,0 -2.033,0.408 -2.773,1.149 -1.528,1.528 -1.528,4.015 -10e-4,5.543 l 4.583,4.586 c 0.741,0.742 1.726,1.15 2.774,1.15 1.047,0 2.032,-0.408 2.772,-1.15 C 8.883,9.75 8.883,7.264 7.356,5.736 L 2.773,1.149 C 2.032,0.408 1.048,0 0,0"
             style="fill:#e48a54;fill-opacity:1;fill-rule:nonzero;stroke:none"
             id="path714"
             inkscape:connector-curvature="0" /></g><g
           id="g716"
           transform="translate(52.7399,139.9303)"><path
             d="m 0,0 c -1.132,0 -2.264,-0.432 -3.127,-1.296 l -4.582,-4.586 c -1.726,-1.726 -1.726,-4.524 0,-6.25 0.863,-0.863 1.995,-1.296 3.126,-1.296 1.132,0 2.264,0.433 3.127,1.296 l 4.583,4.587 C 4.852,-5.819 4.852,-3.021 3.126,-1.296 2.264,-0.432 1.132,0 0,0 m 0,-1 c 0.914,0 1.773,-0.356 2.419,-1.003 1.333,-1.333 1.333,-3.502 10e-4,-4.836 l -4.583,-4.586 c -0.646,-0.646 -1.505,-1.003 -2.42,-1.003 -0.914,0 -1.773,0.357 -2.419,1.003 -1.332,1.333 -1.332,3.502 0,4.836 l 4.583,4.586 C -1.773,-1.356 -0.914,-1 0,-1"
             style="fill:#000000;fill-opacity:1;fill-rule:nonzero;stroke:none"
             id="path718"
             inkscape:connector-curvature="0" /></g><g
           id="g720"
           transform="translate(29.0334,131.2292)"><path
             d="m 0,0 c -0.508,-0.251 -0.898,-0.466 -1.048,-0.727 -0.144,-0.215 -0.326,-0.555 -0.408,-1.078 -0.084,-0.482 -0.208,-1.134 -0.687,-1.54 -0.48,-0.384 -1.063,-0.421 -1.562,-0.366 l -0.002,0.1 c 0.491,0.071 0.97,0.27 1.207,0.617 0.254,0.328 0.258,0.756 0.247,1.256 -0.005,0.251 -0.019,0.522 0.02,0.834 0.047,0.301 0.197,0.662 0.481,0.887 0.577,0.468 1.279,0.407 1.756,0.117 z"
             style="fill:#000000;fill-opacity:1;fill-rule:nonzero;stroke:none"
             id="path722"
             inkscape:connector-curvature="0" /></g><g
           id="g724"
           transform="translate(32.0437,130.5182)"><path
             d="m 0,0 c -1.047,0 -2.033,0.408 -2.773,1.149 -1.528,1.529 -1.528,4.014 0,5.542 l 4.582,4.587 c 0.741,0.742 1.726,1.15 2.773,1.15 1.048,0 2.033,-0.408 2.773,-1.15 C 8.883,9.751 8.883,7.264 7.356,5.735 L 2.773,1.149 C 2.033,0.408 1.048,0 0,0"
             style="fill:#569bbc;fill-opacity:1;fill-rule:nonzero;stroke:none"
             id="path726"
             inkscape:connector-curvature="0" /></g><g
           id="g728"
           transform="translate(36.6267,143.446)"><path
             d="M 0,0 C -1.132,0 -2.264,-0.433 -3.127,-1.297 L -7.71,-5.883 c -1.725,-1.725 -1.725,-4.523 0.001,-6.25 0.863,-0.863 1.994,-1.295 3.126,-1.295 1.132,0 2.264,0.432 3.127,1.296 l 4.583,4.586 c 1.725,1.727 1.725,4.524 -10e-4,6.25 C 2.263,-0.433 1.131,-0.001 0,0 m 0,-1 c 0.914,-10e-4 1.773,-0.356 2.419,-1.003 1.332,-1.333 1.333,-3.503 0,-4.836 l -4.583,-4.586 c -0.646,-0.646 -1.505,-1.003 -2.419,-1.003 -0.914,0 -1.773,0.356 -2.419,1.002 -1.333,1.334 -1.333,3.503 0,4.836 l 4.582,4.587 C -1.773,-1.356 -0.915,-1 0,-1"
             style="fill:#000000;fill-opacity:1;fill-rule:nonzero;stroke:none"
             id="path730"
             inkscape:connector-curvature="0" /></g></g></g><g
       id="g732"><g
         id="g734"
         clip-path="url(#clipPath738)"><g
           id="g740"
           transform="translate(75.7897,116.9215)"><path
             d="M 0,0 H 36.121"
             style="fill:none;stroke:#000000;stroke-width:1;stroke-linecap:butt;stroke-linejoin:miter;stroke-miterlimit:10;stroke-dasharray:none;stroke-opacity:1"
             id="path742"
             inkscape:connector-curvature="0" /></g><g
           id="g744"
           transform="translate(109.9289,114.0163)"><path
             d="M 0,0 10.841,2.905 0,5.811 Z"
             style="fill:#000000;fill-opacity:1;fill-rule:nonzero;stroke:none"
             id="path746"
             inkscape:connector-curvature="0" /></g><g
           id="g748"><g
             id="g750" /><g
             id="g766"><g
               clip-path="url(#clipPath754)"
               id="g764"
               style="opacity:0.5"><g
                 transform="translate(91.1906,217.5529)"
                 id="g758"><path
                   d="m 0,0 12.935,-0.95 -5.29,-7.053 8.871,1.295 -16.874,-22.325 4.185,12.475 -6.164,-0.961 z"
                   style="fill:#fbb03b;fill-opacity:1;fill-rule:nonzero;stroke:none"
                   id="path756"
                   inkscape:connector-curvature="0" /></g><g
                 transform="translate(91.1906,217.5529)"
                 id="g762"><path
                   d="m 0,0 12.935,-0.95 -5.29,-7.053 8.871,1.295 -16.874,-22.325 4.185,12.475 -6.164,-0.961 z"
                   style="fill:none;stroke:#f7931e;stroke-width:1;stroke-linecap:butt;stroke-linejoin:miter;stroke-miterlimit:10;stroke-dasharray:none;stroke-opacity:1"
                   id="path760"
                   inkscape:connector-curvature="0" /></g></g></g></g></g></g><text
       transform="matrix(1,0,0,-1,30.4248,153.814)"
       style="font-variant:normal;font-weight:normal;font-stretch:normal;font-size:12px;font-family:'Myriad Pro';-inkscape-font-specification:MyriadPro-Regular;writing-mode:lr-tb;fill:#000000;fill-opacity:1;fill-rule:nonzero;stroke:none"
       id="text770"><tspan
         x="0 10.008 12.816 19.452 23.316 29.052 33.023998 35.832001 42.419998"
         y="0"
         sodipodi:role="line"
         id="tspan768"
         style="fill:#7470b2;fill-opacity:1">migration</tspan></text>
<g
       id="g772"><g
         id="g774"
         clip-path="url(#clipPath778)"><g
           id="g780"><g
             id="g782" /><g
             id="g798"><g
               clip-path="url(#clipPath786)"
               id="g796"
               style="opacity:0.5"><g
                 transform="translate(92.0275,50.0114)"
                 id="g790"><path
                   d="m 0,0 12.935,-0.95 -5.29,-7.053 8.871,1.295 -16.874,-22.325 4.185,12.474 -6.164,-0.96 z"
                   style="fill:#fbb03b;fill-opacity:1;fill-rule:nonzero;stroke:none"
                   id="path788"
                   inkscape:connector-curvature="0" /></g><g
                 transform="translate(92.0275,50.0114)"
                 id="g794"><path
                   d="m 0,0 12.935,-0.95 -5.29,-7.053 8.871,1.295 -16.874,-22.325 4.185,12.474 -6.164,-0.96 z"
                   style="fill:none;stroke:#f7931e;stroke-width:1;stroke-linecap:butt;stroke-linejoin:miter;stroke-miterlimit:10;stroke-dasharray:none;stroke-opacity:1"
                   id="path792"
                   inkscape:connector-curvature="0" /></g></g></g></g></g></g><text
       transform="matrix(1,0,0,-1,16.9985,75.1836)"
       style="font-variant:normal;font-weight:normal;font-stretch:normal;font-size:12px;font-family:'Myriad Pro';-inkscape-font-specification:MyriadPro-Regular;writing-mode:lr-tb;fill:#000000;fill-opacity:1;fill-rule:nonzero;stroke:none"
       id="text804"><tspan
         x="0 6.8280001 13.416 17.388 21.360001 24.191999 30.204 36.863998 42.875999 48.251999 53.880001 56.424 63.683998"
         y="0"
         sodipodi:role="line"
         id="tspan800"
         style="fill:#1e9e77;fill-opacity:1">bottleneck &amp; </tspan><tspan
         x="7.296 17.304001 20.112 26.747999 30.612 36.348 40.32 43.127998 49.716 56.375999"
         y="9.9960003"
         sodipodi:role="line"
         id="tspan802"
         style="fill:#1e9e77;fill-opacity:1">migration </tspan></text>
</g></svg>